<svg width="17" height="18" viewBox="0 0 17 18" fill="none" xmlns="http://www.w3.org/2000/svg">
<path d="M9.32962 0V2.65278C12.2048 3.08178 14.4185 5.62075 14.4185 8.71129C14.4185 9.49924 14.2658 10.2434 14.0114 10.9351L16.2166 12.2746C16.6915 11.189 16.9629 9.98077 16.9629 8.71129C16.9629 4.17617 13.6128 0.437753 9.32962 0ZM8.48147 14.8398C5.19914 14.8398 2.54444 12.0995 2.54444 8.71129C2.54444 5.62075 4.7581 3.08178 7.63332 2.65278V0C3.3417 0.437753 0 4.16741 0 8.71129C0 13.5441 3.79122 17.4664 8.47299 17.4664C11.2804 17.4664 13.7654 16.0568 15.3091 13.8855L13.1039 12.546C12.5506 13.2631 11.8474 13.8419 11.047 14.2391C10.2466 14.6363 9.36957 14.8416 8.48147 14.8398Z" fill="#36503F"/>
</svg>
