<svg width="22" height="22" viewBox="0 0 22 22" fill="none" xmlns="http://www.w3.org/2000/svg">
<path fill-rule="evenodd" clip-rule="evenodd" d="M5.82124 1.98461C6.69851 1.91476 7.53138 1.56994 8.20129 0.999222C8.95798 0.354256 9.91973 0 10.914 0C11.9083 0 12.87 0.354256 13.6267 0.999222C14.2965 1.57025 15.1294 1.91545 16.0068 1.98566C16.9978 2.06458 17.9283 2.494 18.6314 3.1969C19.3345 3.89981 19.7642 4.8302 19.8434 5.82124C19.9126 6.69854 20.2579 7.53176 20.8298 8.20128C21.4746 8.95808 21.8287 9.91978 21.8287 10.914C21.8287 11.9082 21.4746 12.8699 20.8298 13.6267C20.2587 14.2965 19.9135 15.1294 19.8434 16.0068C19.7642 16.9978 19.3345 17.9282 18.6314 18.6311C17.9283 19.334 16.9978 19.7634 16.0068 19.8423C15.1294 19.9125 14.2965 20.2577 13.6267 20.8288C12.87 21.4737 11.9083 21.828 10.914 21.828C9.91973 21.828 8.95798 21.4737 8.20129 20.8288C7.53152 20.2577 6.69863 19.9125 5.82124 19.8423C4.83037 19.7632 3.9001 19.3336 3.19722 18.6308C2.49434 17.9279 2.06482 16.9976 1.98566 16.0068C1.91552 15.1294 1.57031 14.2965 0.999222 13.6267C0.354256 12.87 0 11.9083 0 10.914C0 9.91972 0.354256 8.95798 0.999222 8.20128C1.57031 7.53152 1.91552 6.69863 1.98566 5.82124C2.06458 4.83018 2.494 3.89967 3.1969 3.19657C3.89981 2.49348 4.83021 2.0638 5.82124 1.98461ZM15.9711 9.14995C16.1025 9.02438 16.2075 8.87381 16.2799 8.70709C16.3524 8.54037 16.3907 8.36086 16.3928 8.1791C16.3949 7.99735 16.3606 7.81701 16.292 7.64868C16.2234 7.48035 16.1218 7.32743 15.9933 7.1989C15.8648 7.07037 15.7119 6.96882 15.5435 6.90022C15.3752 6.83162 15.1949 6.79735 15.0131 6.79942C14.8314 6.80149 14.6518 6.83986 14.4851 6.91228C14.3184 6.98471 14.1678 7.08971 14.0423 7.22114L9.55082 11.7126L7.78572 9.94959C7.52801 9.70337 7.18416 9.56778 6.82776 9.57185C6.47135 9.57591 6.13069 9.71929 5.87865 9.97133C5.62662 10.2234 5.48323 10.564 5.47917 10.9204C5.47511 11.2768 5.61069 11.6207 5.85691 11.8784L8.58537 14.6068C8.84119 14.8625 9.18808 15.0062 9.54977 15.0062C9.91146 15.0062 10.2584 14.8625 10.5142 14.6068L15.9711 9.14995Z" fill="black"/>
</svg>
