<svg width="7" height="14" viewBox="0 0 7 14" fill="none" xmlns="http://www.w3.org/2000/svg">
<path d="M5.02174 0C3.28026 0 1.82609 1.80789 1.82609 3.97297V5.2973H0.152174C0.111815 5.2973 0.0731087 5.31723 0.0445706 5.35271C0.0160324 5.38819 0 5.43631 0 5.48649V8.51351C0 8.61795 0.0681739 8.7027 0.152174 8.7027H1.82609V13.8108C1.82609 13.9152 1.89426 14 1.97826 14H4.41304C4.4534 14 4.49211 13.9801 4.52065 13.9446C4.54918 13.9091 4.56522 13.861 4.56522 13.8108V8.7027H6.23913C6.27306 8.70259 6.30599 8.68837 6.33268 8.66232C6.35937 8.63627 6.37829 8.59987 6.38644 8.55892L6.99513 5.53189C7.00066 5.50407 7.00104 5.47504 6.99623 5.44701C6.99142 5.41897 6.98154 5.39266 6.96736 5.37007C6.95317 5.34747 6.93504 5.32918 6.91433 5.31658C6.89362 5.30397 6.87088 5.29738 6.84783 5.2973H4.56522V3.97297C4.56679 3.82305 4.6154 3.67983 4.70067 3.57381C4.78595 3.46779 4.90115 3.40737 5.02174 3.40541H6.84783C6.88819 3.40541 6.92689 3.38547 6.95543 3.34999C6.98397 3.31451 7 3.26639 7 3.21622V0.189189C7 0.139013 6.98397 0.0908921 6.95543 0.0554123C6.92689 0.0199324 6.88819 0 6.84783 0H5.02174Z" fill="white"/>
</svg>
