<svg width="6" height="13" viewBox="0 0 6 13" fill="none" xmlns="http://www.w3.org/2000/svg">
<path d="M4.30435 0C2.81165 0 1.56522 1.67876 1.56522 3.68919V4.91892H0.130435C0.0958413 4.91892 0.0626646 4.93743 0.0382034 4.97037C0.0137421 5.00332 0 5.048 0 5.09459V7.90541C0 8.00238 0.0584348 8.08108 0.130435 8.08108H1.56522V12.8243C1.56522 12.9213 1.62365 13 1.69565 13H3.78261C3.8172 13 3.85038 12.9815 3.87484 12.9485C3.8993 12.9156 3.91304 12.8709 3.91304 12.8243V8.08108H5.34783C5.37691 8.08097 5.40514 8.06777 5.42801 8.04358C5.45089 8.01939 5.46711 7.9856 5.47409 7.94757L5.99583 5.13676C6.00057 5.11092 6.00089 5.08396 5.99677 5.05793C5.99264 5.0319 5.98418 5.00747 5.97202 4.98649C5.95986 4.96551 5.94432 4.94853 5.92657 4.93682C5.90882 4.92511 5.88933 4.91899 5.86957 4.91892H3.91304V3.68919C3.91439 3.54998 3.95606 3.41698 4.02915 3.31854C4.10224 3.22009 4.20099 3.16398 4.30435 3.16216H5.86957C5.90416 3.16216 5.93734 3.14365 5.9618 3.11071C5.98626 3.07776 6 3.03308 6 2.98649V0.175676C6 0.129084 5.98626 0.0843998 5.9618 0.0514542C5.93734 0.0185087 5.90416 0 5.86957 0H4.30435Z" fill="black"/>
</svg>
