<svg width="31" height="32" viewBox="0 0 31 32" fill="none" xmlns="http://www.w3.org/2000/svg">
<path d="M16.7917 2.73242V6.77242C21.1705 7.42576 24.5417 11.2924 24.5417 15.9991C24.5417 17.1991 24.3092 18.3324 23.9217 19.3858L27.28 21.4258C28.0034 19.7724 28.4167 17.9324 28.4167 15.9991C28.4167 9.09242 23.3146 3.39909 16.7917 2.73242ZM15.5 25.3324C10.5013 25.3324 6.45837 21.1591 6.45837 15.9991C6.45837 11.2924 9.82962 7.42576 14.2084 6.77242V2.73242C7.67254 3.39909 2.58337 9.07909 2.58337 15.9991C2.58337 23.3591 8.35712 29.3324 15.4871 29.3324C19.7625 29.3324 23.5471 27.1858 25.898 23.8791L22.5396 21.8391C21.697 22.9312 20.6262 23.8126 19.4072 24.4175C18.1882 25.0224 16.8526 25.3352 15.5 25.3324Z" fill="#36503F"/>
</svg>
