<svg width="20" height="20" viewBox="0 0 20 20" fill="none" xmlns="http://www.w3.org/2000/svg">
<path d="M12.6001 7.0291V2.6001C12.6001 2.06966 12.3894 1.56096 12.0143 1.18588C11.6392 0.810811 11.1305 0.600098 10.6001 0.600098H8.6001C8.06966 0.600098 7.56096 0.810811 7.18588 1.18588C6.81081 1.56096 6.6001 2.06966 6.6001 2.6001V10.8861M12.6001 7.0291V18.6001M12.6001 7.0291H16.6001C17.1305 7.0291 17.6392 7.23981 18.0143 7.61488C18.3894 7.98996 18.6001 8.49866 18.6001 9.0291V16.6001C18.6001 17.1305 18.3894 17.6392 18.0143 18.0143C17.6392 18.3894 17.1305 18.6001 16.6001 18.6001H12.6001M6.6001 10.8861V18.6001M6.6001 10.8861H2.6001C2.06966 10.8861 1.56096 11.0968 1.18588 11.4719C0.810811 11.847 0.600098 12.3557 0.600098 12.8861V16.6001C0.600098 17.1305 0.810811 17.6392 1.18588 18.0143C1.56096 18.3894 2.06966 18.6001 2.6001 18.6001H6.6001M12.6001 18.6001H6.6001" stroke="black" stroke-width="1.2" stroke-linecap="round" stroke-linejoin="round"/>
</svg>
