<svg width="20" height="20" viewBox="0 0 20 20" fill="none" xmlns="http://www.w3.org/2000/svg">
<path d="M2.6001 14.6001V4.6001M2.6001 14.6001C2.20454 14.6001 1.81786 14.7174 1.48896 14.9372C1.16006 15.1569 0.903715 15.4693 0.752339 15.8347C0.600964 16.2002 0.561358 16.6023 0.638528 16.9903C0.715698 17.3782 0.90618 17.7346 1.18588 18.0143C1.46559 18.294 1.82196 18.4845 2.20992 18.5617C2.59788 18.6388 3.00001 18.5992 3.36547 18.4479C3.73092 18.2965 4.04327 18.0401 4.26304 17.7112C4.4828 17.3823 4.6001 16.9957 4.6001 16.6001M2.6001 14.6001C3.13053 14.6001 3.63924 14.8108 4.01431 15.1859C4.38939 15.561 4.6001 16.0697 4.6001 16.6001M2.6001 4.6001C3.13053 4.6001 3.63924 4.38939 4.01431 4.01431C4.38939 3.63924 4.6001 3.13053 4.6001 2.6001M2.6001 4.6001C2.20454 4.6001 1.81786 4.4828 1.48896 4.26304C1.16006 4.04327 0.903715 3.73092 0.752339 3.36547C0.600964 3.00001 0.561358 2.59788 0.638528 2.20992C0.715698 1.82196 0.90618 1.46559 1.18588 1.18588C1.46559 0.90618 1.82196 0.715698 2.20992 0.638528C2.59788 0.561358 3.00001 0.600964 3.36547 0.752339C3.73092 0.903715 4.04327 1.16006 4.26304 1.48896C4.4828 1.81786 4.6001 2.20454 4.6001 2.6001M4.6001 16.6001H14.6001M4.6001 2.6001H14.6001M14.6001 2.6001C14.6001 3.13053 14.8108 3.63924 15.1859 4.01431C15.561 4.38939 16.0697 4.6001 16.6001 4.6001M14.6001 2.6001C14.6001 2.20454 14.7174 1.81786 14.9372 1.48896C15.1569 1.16006 15.4693 0.903715 15.8347 0.752339C16.2002 0.600964 16.6023 0.561358 16.9903 0.638528C17.3782 0.715698 17.7346 0.90618 18.0143 1.18588C18.294 1.46559 18.4845 1.82196 18.5617 2.20992C18.6388 2.59788 18.5992 3.00001 18.4479 3.36547C18.2965 3.73092 18.0401 4.04327 17.7112 4.26304C17.3823 4.4828 16.9957 4.6001 16.6001 4.6001M16.6001 4.6001V14.6001M16.6001 14.6001C16.0697 14.6001 15.561 14.8108 15.1859 15.1859C14.8108 15.561 14.6001 16.0697 14.6001 16.6001M16.6001 14.6001C16.9957 14.6001 17.3823 14.7174 17.7112 14.9372C18.0401 15.1569 18.2965 15.4693 18.4479 15.8347C18.5992 16.2002 18.6388 16.6023 18.5617 16.9903C18.4845 17.3782 18.294 17.7346 18.0143 18.0143C17.7346 18.294 17.3782 18.4845 16.9903 18.5617C16.6023 18.6388 16.2002 18.5992 15.8347 18.4479C15.4693 18.2965 15.1569 18.0401 14.9372 17.7112C14.7174 17.3823 14.6001 16.9957 14.6001 16.6001" stroke="black" stroke-width="1.2" stroke-linecap="round" stroke-linejoin="round"/>
</svg>
