<svg width="19" height="19" viewBox="0 0 19 19" fill="none" xmlns="http://www.w3.org/2000/svg">
<path d="M3.2 12.2H2.3C1.82261 12.2 1.36477 12.0104 1.02721 11.6728C0.689642 11.3352 0.5 10.8774 0.5 10.4V2.3C0.5 1.82261 0.689642 1.36477 1.02721 1.02721C1.36477 0.689642 1.82261 0.5 2.3 0.5H10.4C10.8774 0.5 11.3352 0.689642 11.6728 1.02721C12.0104 1.36477 12.2 1.82261 12.2 2.3V3.2M8.6 6.8H16.7C17.6941 6.8 18.5 7.60589 18.5 8.6V16.7C18.5 17.6941 17.6941 18.5 16.7 18.5H8.6C7.60589 18.5 6.8 17.6941 6.8 16.7V8.6C6.8 7.60589 7.60589 6.8 8.6 6.8Z" stroke="black" stroke-linecap="round" stroke-linejoin="round"/>
</svg>
