<svg width="19" height="19" viewBox="0 0 19 19" fill="none" xmlns="http://www.w3.org/2000/svg">
<path d="M6.5 4.04058V18.2956M12.5 0.680582V14.9356M0.5 6.09258C0.5 4.56558 0.5 3.80258 0.893 3.35758C1.032 3.19858 1.201 3.07258 1.39 2.98558C2.806 2.33258 4.662 4.05158 6.16 3.99858C6.357 3.99158 6.554 3.96358 6.747 3.91658C8.931 3.38158 10.299 0.836582 12.545 0.526582C13.832 0.346582 15.245 1.12458 16.449 1.54058C17.439 1.88258 17.934 2.05358 18.217 2.46058C18.5 2.86758 18.5 3.40958 18.5 4.48958V12.9116C18.5 14.4376 18.5 15.2016 18.107 15.6466C17.9691 15.8037 17.7998 15.9301 17.61 16.0176C16.194 16.6706 14.338 14.9526 12.84 15.0056C12.6421 15.0125 12.4454 15.0396 12.253 15.0866C10.069 15.6216 8.701 18.1666 6.455 18.4776C5.174 18.6556 1.608 17.7276 0.783 16.5426C0.5 16.1356 0.5 15.5956 0.5 14.5136V6.09258Z" stroke="black" stroke-linecap="round" stroke-linejoin="round"/>
</svg>
