<svg width="14" height="14" viewBox="0 0 14 14" fill="none" xmlns="http://www.w3.org/2000/svg">
<g opacity="0.82">
<path d="M3.1431 0.0251619C2.71223 0.0767772 2.20397 0.244527 1.81697 0.463892C0.815928 1.0394 0.155446 2.04074 0.0290251 3.17886C-0.00967503 3.5221 -0.00967503 9.68497 0.0290251 10.0282C0.212206 11.6876 1.52285 12.9987 3.1818 13.1819C3.52494 13.2206 9.686 13.2206 10.0291 13.1819C11.6881 12.9987 12.9987 11.6876 13.1819 10.0282C13.2206 9.68497 13.2206 3.5221 13.1819 3.17886C12.9987 1.51943 11.6881 0.208396 10.0291 0.0251619C9.7247 -0.00838808 3.4398 -0.00838808 3.1431 0.0251619ZM10.2975 0.853588C10.8341 1.00069 11.2469 1.23554 11.6081 1.59943C11.9719 1.96074 12.2067 2.37366 12.3563 2.91046L12.4234 3.15821V6.60353V10.0489L12.3563 10.2966C12.2067 10.8334 11.9719 11.2463 11.6081 11.6076C11.2469 11.9715 10.8341 12.2064 10.2975 12.3561L10.0498 12.4232H6.60547H3.16116L2.91348 12.3561C2.37683 12.2064 1.96403 11.9715 1.60283 11.6076C1.23905 11.2463 1.00427 10.8334 0.854628 10.2966L0.787548 10.0489V6.60353V3.15821L0.854628 2.91046C1.00427 2.37366 1.23905 1.96074 1.60025 1.59943C2.02853 1.17102 2.59355 0.887138 3.18696 0.799391C3.2721 0.786488 4.85106 0.778745 6.69577 0.781326L10.0498 0.783907L10.2975 0.853588Z" fill="black"/>
<path d="M10.1786 1.71926C9.5491 1.80701 9.12082 2.41865 9.27304 3.01222C9.37882 3.43289 9.64714 3.69871 10.0651 3.8071C10.7746 3.98775 11.4712 3.34514 11.3525 2.61995C11.288 2.21477 10.9913 1.87411 10.6043 1.75797C10.4908 1.72442 10.2818 1.70636 10.1786 1.71926ZM10.4676 2.54253C10.6069 2.63027 10.6301 2.84447 10.514 2.96577C10.4186 3.06384 10.3025 3.08707 10.1838 3.03029C10.0032 2.94512 9.96448 2.70769 10.109 2.57349C10.2147 2.47284 10.3386 2.46252 10.4676 2.54253Z" fill="black"/>
<path d="M6.10535 3.02909C4.6786 3.22522 3.47374 4.29882 3.10996 5.70534C2.79004 6.93636 3.14866 8.23707 4.0594 9.14808C5.47841 10.5675 7.72817 10.5675 9.14718 9.14808C10.5662 7.72866 10.5662 5.47823 9.14718 4.05881C8.3319 3.24587 7.24055 2.87424 6.10535 3.02909ZM7.01609 3.80332C7.63529 3.89622 8.16162 4.16204 8.6028 4.60335C9.71478 5.71308 9.71478 7.49381 8.6028 8.60354C7.49339 9.71585 5.71319 9.71585 4.60378 8.60354C3.4918 7.49381 3.4918 5.71308 4.60378 4.60335C5.24621 3.96074 6.12857 3.66653 7.01609 3.80332Z" fill="black"/>
</g>
</svg>
