<svg width="14" height="14" viewBox="0 0 14 14" fill="none" xmlns="http://www.w3.org/2000/svg">
<g opacity="0.82">
<path d="M3.33083 0.0266657C2.87423 0.0813637 2.33561 0.259133 1.9255 0.4916C0.864662 1.10149 0.16473 2.16263 0.0307587 3.36872C-0.0102529 3.73247 -0.0102529 10.2634 0.0307587 10.6272C0.22488 12.3857 1.61381 13.7751 3.37184 13.9692C3.73547 14.0103 10.2645 14.0103 10.6282 13.9692C12.3862 13.7751 13.7751 12.3857 13.9692 10.6272C14.0103 10.2634 14.0103 3.73247 13.9692 3.36872C13.7751 1.61018 12.3862 0.220844 10.6282 0.0266657C10.3055 -0.00888824 3.64525 -0.00888824 3.33083 0.0266657ZM10.9125 0.904572C11.4812 1.06046 11.9187 1.30934 12.3014 1.69496C12.6869 2.07785 12.9357 2.51543 13.0943 3.08429L13.1654 3.34685V6.99795V10.6491L13.0943 10.9116C12.9357 11.4805 12.6869 11.9181 12.3014 12.3009C11.9187 12.6866 11.4812 12.9354 10.9125 13.0941L10.65 13.1652H7H3.34997L3.08749 13.0941C2.5188 12.9354 2.08134 12.6866 1.69856 12.3009C1.31306 11.9181 1.06425 11.4805 0.905673 10.9116L0.834586 10.6491V6.99795V3.34685L0.905673 3.08429C1.06425 2.51543 1.31306 2.07785 1.69583 1.69496C2.14969 1.24097 2.74846 0.940125 3.37731 0.847138C3.46753 0.833464 5.14081 0.825259 7.09569 0.827994L10.65 0.830729L10.9125 0.904572Z" fill="white"/>
<path d="M10.7814 1.82514C10.1143 1.91813 9.66044 2.5663 9.82176 3.19533C9.93386 3.64112 10.2182 3.92282 10.6611 4.03768C11.413 4.22913 12.1512 3.54813 12.0254 2.77962C11.9571 2.35024 11.6427 1.98924 11.2326 1.86617C11.1123 1.83061 10.8908 1.81147 10.7814 1.82514ZM11.0876 2.69758C11.2353 2.79056 11.2599 3.01756 11.1369 3.1461C11.0357 3.25003 10.9127 3.27464 10.7869 3.21448C10.5955 3.12422 10.5545 2.87261 10.7076 2.7304C10.8197 2.62374 10.9509 2.6128 11.0876 2.69758Z" fill="white"/>
<path d="M6.47569 3.20769C4.96373 3.41554 3.6869 4.55327 3.30139 6.04379C2.96236 7.34834 3.3424 8.72674 4.30754 9.69216C5.8113 11.1964 8.19544 11.1964 9.6992 9.69216C11.203 8.18796 11.203 5.80312 9.6992 4.29892C8.83522 3.43742 7.67869 3.0436 6.47569 3.20769ZM7.44083 4.02816C8.09701 4.12662 8.65477 4.40832 9.1223 4.87599C10.3007 6.052 10.3007 7.93909 9.1223 9.1151C7.94664 10.2938 6.0601 10.2938 4.88444 9.1151C3.70604 7.93909 3.70604 6.052 4.88444 4.87599C5.56523 4.19499 6.50029 3.88321 7.44083 4.02816Z" fill="white"/>
</g>
</svg>
