<svg width="14" height="14" viewBox="0 0 14 14" fill="none" xmlns="http://www.w3.org/2000/svg">
<g opacity="0.82">
<path d="M1.34128 0.031873C0.876569 0.120716 0.377688 0.510258 0.165835 0.954473C0.00865388 1.28934 -0.0391839 1.65155 0.0325728 1.983C0.111163 2.33496 0.237592 2.58782 0.452862 2.82018C1.49846 3.94438 3.34022 3.21997 3.34022 1.6823C3.34022 0.609352 2.39371 -0.169732 1.34128 0.031873Z" fill="white"/>
<path d="M9.79744 4.49999C9.63684 4.53416 9.43182 4.58883 9.33614 4.61959C8.7655 4.81777 8.19145 5.25516 7.88392 5.73696L7.74724 5.94198L7.74041 5.29958L7.73016 4.65376L6.33944 4.64351L4.94531 4.63667V9.31802V13.9994H6.39753H7.84975V11.4947C7.84975 9.00023 7.86684 8.5936 7.97276 8.17331C8.09919 7.68125 8.39989 7.28829 8.77917 7.11403C9.16871 6.93634 9.79402 6.91584 10.187 7.06277C10.5663 7.20629 10.8499 7.55824 10.9729 8.04004C11.0754 8.43984 11.0959 8.9934 11.0959 11.4776V13.9652H12.5481H14.0003V11.2384C14.0003 8.41933 13.9798 7.79743 13.8602 7.13111C13.58 5.54219 12.7736 4.7016 11.3112 4.48291C10.8499 4.41456 10.1631 4.4214 9.79744 4.49999Z" fill="white"/>
<path d="M0.234375 9.31802V13.9994H1.68659H3.13881V9.31802V4.63667H1.68659H0.234375V9.31802Z" fill="white"/>
</g>
</svg>
