<svg width="16" height="16" viewBox="0 0 16 16" fill="none" xmlns="http://www.w3.org/2000/svg">
<g opacity="0.82">
<path d="M1.47172 0.034973C0.961819 0.132456 0.41442 0.559884 0.181963 1.0473C0.0094955 1.41474 -0.0429948 1.81217 0.0357406 2.17586C0.121975 2.56204 0.260699 2.8395 0.496905 3.09445C1.64419 4.32799 3.66507 3.53313 3.66507 1.84591C3.66507 0.668615 2.62651 -0.186239 1.47172 0.034973Z" fill="black"/>
<path d="M10.7498 4.93431C10.5736 4.9718 10.3486 5.03179 10.2436 5.06554C9.6175 5.283 8.98762 5.76292 8.65018 6.29158L8.50021 6.51654L8.49271 5.81166L8.48146 5.10303L6.9555 5.09178L5.42578 5.08428V10.2209V15.3575H7.01924H8.61269V12.6093C8.61269 9.87222 8.63144 9.42604 8.74767 8.96487C8.88639 8.42496 9.21633 7.99379 9.6325 7.80257C10.0599 7.6076 10.746 7.58511 11.1772 7.74633C11.5934 7.9038 11.9046 8.28999 12.0396 8.81865C12.152 9.25732 12.1745 9.86472 12.1745 12.5905V15.32H13.768H15.3614V12.328C15.3614 9.23483 15.3389 8.55244 15.2077 7.82132C14.9003 6.07786 14.0154 5.15552 12.4107 4.91556C11.9046 4.84058 11.151 4.84807 10.7498 4.93431Z" fill="black"/>
<path d="M0.253906 10.2209V15.3575H1.84736H3.44082V10.2209V5.08428H1.84736H0.253906V10.2209Z" fill="black"/>
</g>
</svg>
