<svg width="146" height="27" viewBox="0 0 146 27" fill="none" xmlns="http://www.w3.org/2000/svg">
<path d="M4.07662 25.8026H-8.87606e-05L9.16007 0.348066H13.5972L22.7574 25.8026H18.6807L11.4843 4.97164H11.2854L4.07662 25.8026ZM4.76021 15.8346H17.9846V19.0661H4.76021V15.8346ZM24.942 0.348066L32.0265 21.0796H32.3124L39.3969 0.348066H43.5482L34.388 25.8026H29.9509L20.7907 0.348066H24.942ZM67.0206 13.0753C67.0206 15.7931 66.5234 18.1298 65.5291 20.0853C64.5348 22.0325 63.1717 23.5323 61.44 24.5846C59.7165 25.6286 57.7568 26.1506 55.561 26.1506C53.357 26.1506 51.3891 25.6286 49.6573 24.5846C47.9338 23.5323 46.5749 22.0283 45.5806 20.0729C44.5863 18.1174 44.0891 15.7849 44.0891 13.0753C44.0891 10.3575 44.5863 8.02503 45.5806 6.07782C46.5749 4.12233 47.9338 2.62257 49.6573 1.57853C51.3891 0.526215 53.357 5.45382e-05 55.561 5.45382e-05C57.7568 5.45382e-05 59.7165 0.526215 61.44 1.57853C63.1717 2.62257 64.5348 4.12233 65.5291 6.07782C66.5234 8.02503 67.0206 10.3575 67.0206 13.0753ZM63.2173 13.0753C63.2173 11.0038 62.8817 9.25964 62.2105 7.84274C61.5477 6.41755 60.6362 5.34037 59.4762 4.61121C58.3244 3.87375 57.0194 3.50503 55.561 3.50503C54.0944 3.50503 52.7852 3.87375 51.6335 4.61121C50.4817 5.34037 49.5703 6.41755 48.8991 7.84274C48.2362 9.25964 47.9048 11.0038 47.9048 13.0753C47.9048 15.1468 48.2362 16.8952 48.8991 18.3204C49.5703 19.7373 50.4817 20.8144 51.6335 21.5519C52.7852 22.2811 54.0944 22.6457 55.561 22.6457C57.0194 22.6457 58.3244 22.2811 59.4762 21.5519C60.6362 20.8144 61.5477 19.7373 62.2105 18.3204C62.8817 16.8952 63.2173 15.1468 63.2173 13.0753ZM70.7588 25.8026V0.348066H79.832C81.804 0.348066 83.4405 0.687791 84.7414 1.36724C86.0506 2.04669 87.0284 2.98715 87.6747 4.18862C88.321 5.3818 88.6441 6.76142 88.6441 8.32747C88.6441 9.88523 88.3168 11.2566 87.6622 12.4415C87.0159 13.6181 86.0382 14.5337 84.729 15.1883C83.4281 15.8429 81.7916 16.1702 79.8195 16.1702H72.9463V12.864H79.4715C80.7144 12.864 81.7253 12.6859 82.5042 12.3296C83.2914 11.9733 83.8673 11.4554 84.2318 10.776C84.5964 10.0965 84.7787 9.28036 84.7787 8.32747C84.7787 7.36629 84.5923 6.53355 84.2194 5.82925C83.8548 5.12494 83.2789 4.58635 82.4918 4.21348C81.7129 3.83232 80.6896 3.64175 79.4218 3.64175H74.5994V25.8026H70.7588ZM83.3245 14.3182L89.6136 25.8026H85.2386L79.0738 14.3182H83.3245ZM96.108 0.348066V25.8026H92.2674V0.348066H96.108ZM121.793 8.62577H117.915C117.766 7.79717 117.488 7.068 117.082 6.43827C116.676 5.80853 116.179 5.27408 115.591 4.83493C115.002 4.39577 114.344 4.06433 113.614 3.84061C112.894 3.61689 112.127 3.50503 111.315 3.50503C109.848 3.50503 108.535 3.87375 107.375 4.61121C106.223 5.34866 105.312 6.42998 104.641 7.85517C103.978 9.28036 103.646 11.0204 103.646 13.0753C103.646 15.1468 103.978 16.8952 104.641 18.3204C105.312 19.7456 106.227 20.8227 107.388 21.5519C108.548 22.2811 109.853 22.6457 111.303 22.6457C112.106 22.6457 112.869 22.5379 113.59 22.3225C114.319 22.0988 114.977 21.7715 115.566 21.3406C116.154 20.9097 116.651 20.3836 117.057 19.7621C117.472 19.1324 117.757 18.4115 117.915 17.5995L121.793 17.6119C121.586 18.8631 121.184 20.0149 120.587 21.0672C119.999 22.1112 119.241 23.0144 118.313 23.7767C117.393 24.5307 116.341 25.1149 115.156 25.5292C113.971 25.9435 112.678 26.1506 111.278 26.1506C109.074 26.1506 107.11 25.6286 105.386 24.5846C103.663 23.5323 102.304 22.0283 101.31 20.0729C100.324 18.1174 99.8307 15.7849 99.8307 13.0753C99.8307 10.3575 100.328 8.02503 101.322 6.07782C102.316 4.12233 103.675 2.62257 105.399 1.57853C107.122 0.526215 109.082 5.45382e-05 111.278 5.45382e-05C112.628 5.45382e-05 113.888 0.194776 115.056 0.584218C116.233 0.965372 117.289 1.52882 118.226 2.27456C119.162 3.01201 119.937 3.91518 120.55 4.98407C121.163 6.04468 121.577 7.25858 121.793 8.62577ZM127.318 25.8026H123.241L132.401 0.348066H136.838L145.998 25.8026H141.922L134.725 4.97164H134.526L127.318 25.8026ZM128.001 15.8346H141.226V19.0661H128.001V15.8346Z" fill="white"/>
</svg>
