<svg width="129" height="43" viewBox="0 0 129 43" fill="none" xmlns="http://www.w3.org/2000/svg">
<path d="M13.3628 1.83105C13.0825 1.95396 12.82 2.11523 12.5776 2.31543C11.9669 2.79726 11.5195 3.42309 11.2339 4.17578C10.9573 4.90506 10.8189 5.66172 10.8188 6.44141C10.8188 7.63974 11.1329 8.66016 11.8364 9.41992L11.8442 9.42871L11.853 9.4375C12.4887 10.0731 13.2609 10.6508 14.1626 11.1729L14.1743 11.1787L14.1851 11.1846C14.6624 11.4346 15.1404 11.6855 15.6177 11.9355L15.6333 11.9434L15.6489 11.9502C16.1458 12.176 16.6312 12.4023 17.105 12.6279L17.1118 12.6309C18.2129 13.1374 19.2837 13.7548 20.3228 14.4844L20.3286 14.4893L20.3345 14.4932C21.3637 15.1793 22.2042 15.9996 22.8618 16.9541L22.8657 16.9609L22.8706 16.9668C23.5117 17.8483 23.8433 18.9105 23.8433 20.1826C23.8432 21.4045 23.5708 22.3778 23.0649 23.1396C22.5353 23.9138 21.8318 24.5281 20.9419 24.9834L20.936 24.9863C20.0411 25.455 19.0559 25.7882 17.9771 25.9824C17.4618 26.0751 16.952 26.1441 16.4478 26.1934C17.3863 25.9584 18.1845 25.5134 18.8149 24.832C19.8085 23.7601 20.2758 22.3464 20.2759 20.6602C20.2759 19.6686 20.0651 18.7947 19.6001 18.0791H19.6011C19.1695 17.3935 18.6115 16.8114 17.9331 16.334C17.2994 15.8881 16.6203 15.467 15.897 15.0703H15.8979C15.2267 14.6999 14.5435 14.3534 13.8491 14.0293V14.0283C13.1747 13.7136 12.5114 13.3878 11.8599 13.0508H11.8589C11.1771 12.688 10.5012 12.2387 9.83154 11.7002C9.20044 11.153 8.67725 10.5348 8.2583 9.8457C7.88186 9.16839 7.69482 8.4459 7.69482 7.66895C7.69488 6.36589 8.00731 5.32212 8.59814 4.49902L8.72021 4.33789C9.44396 3.45098 10.3636 2.78779 11.4927 2.34863L11.4917 2.34766C12.1039 2.1141 12.7278 1.94322 13.3628 1.83105ZM7.82471 19.5068C8.0685 19.5069 8.13595 19.5614 8.13721 19.5625L8.17236 19.5928L8.21143 19.6172C8.22111 19.6232 8.29083 19.6729 8.35693 19.8877L8.36377 19.9092L8.37158 19.9297C8.51837 20.3072 8.63425 20.6957 8.71826 21.0947L8.72119 21.1094L8.7251 21.125C8.84386 21.5764 8.98623 22.0269 9.15186 22.4766C9.57746 23.6515 10.2741 24.6065 11.2417 25.3193L11.2476 25.3232C11.4861 25.4945 11.7341 25.6446 11.9907 25.7744C11.3974 25.5894 10.7961 25.3851 10.188 25.1592L10.1792 25.1553L9.84912 25.0508C9.53171 24.9622 9.21146 24.9075 8.88916 24.8857H8.89014C8.66689 24.8578 8.43697 24.839 8.20068 24.8271C8.15471 24.4643 8.10995 24.1065 8.06396 23.7539H8.06494C8.03031 23.4769 7.99303 23.1998 7.95264 22.9229L7.82275 22.0918C7.77634 21.7027 7.71902 21.3237 7.6499 20.9551C7.58865 20.6284 7.55811 20.3022 7.55811 19.9775C7.55815 19.7622 7.5926 19.6222 7.63232 19.5332H7.63428C7.65656 19.5237 7.71374 19.5068 7.82471 19.5068ZM17.4585 2.02148L17.478 2.02734C18.2727 2.2481 19.0449 2.5127 19.7944 2.82129L19.8071 2.82617L19.8188 2.83105C20.0878 2.92886 20.342 3.00501 20.5786 3.05762V3.05859L20.5913 3.06055C20.8616 3.11458 21.1415 3.14062 21.4292 3.14062H21.8638C21.9176 3.66428 21.9751 4.18831 22.0405 4.71191C22.1314 5.43919 22.2231 6.16633 22.314 6.89355L22.3169 6.91602L22.3208 6.93848C22.3343 7.00587 22.3433 7.09007 22.3433 7.19238V7.25293L22.355 7.31348C22.3699 7.38821 22.3774 7.46144 22.3774 7.5332C22.3774 7.7549 22.3297 7.9508 22.2417 8.13086V8.13281C22.241 8.13349 22.2371 8.1368 22.2271 8.1416C22.2029 8.15315 22.1383 8.1748 22.0083 8.1748C21.9063 8.17479 21.8445 8.16254 21.812 8.15234C21.803 8.1495 21.797 8.14615 21.7935 8.14453C21.729 8.07802 21.646 7.96065 21.5562 7.76562C21.2875 7.07143 21.03 6.38846 20.7837 5.7168C20.5101 4.97054 20.1128 4.2774 19.5972 3.6377H19.5981C19.0334 2.91893 18.3229 2.38809 17.4761 2.05176H17.4771C17.3978 2.01812 17.3176 1.98746 17.2378 1.95703C17.3115 1.97771 17.3855 1.99853 17.4585 2.02148Z" fill="#0C1436" stroke="#0C1436" stroke-width="1.24031"/>
<path d="M33.3794 11.8926L34.3901 10.9512C34.0323 11.4092 33.7452 11.8521 33.5415 12.2822L33.4819 12.4082V25.1631C33.4819 25.405 33.5591 25.6706 33.772 25.873H30.6929C30.5198 25.873 30.3464 25.8768 30.1733 25.8838C30.3957 25.6689 30.4604 25.3922 30.4604 25.1631V3.44434C30.4604 3.1592 30.418 2.84027 30.3442 2.49609H30.3423C30.3024 2.25112 30.2061 1.99122 29.9917 1.79004C29.8715 1.67738 29.7359 1.60277 29.5962 1.55664C29.8162 1.52464 30.0364 1.49557 30.2563 1.46875L30.269 1.4668C31.2537 1.32612 32.2157 1.11473 33.1548 0.833008L33.1753 0.827148L33.1948 0.819336C33.2587 0.79539 33.3202 0.77957 33.3794 0.769531V11.8926ZM39.0122 8.73535C40.5206 8.73538 41.6106 8.92667 42.3335 9.25879L42.3384 9.26074C43.0519 9.57998 43.5375 10.093 43.8198 10.8271L43.8257 10.8398C44.1459 11.6206 44.3247 12.7347 44.3247 14.2188V25.0264C44.3247 25.2822 44.3835 25.5905 44.6108 25.834L44.6128 25.8359C44.1659 25.8165 43.7098 25.8168 43.2446 25.8389H41.9097C41.549 25.8389 41.1883 25.8489 40.8276 25.8682C40.8303 25.8654 40.8337 25.8632 40.8364 25.8604C41.07 25.6112 41.1323 25.2942 41.1323 25.0264V19.8184C41.1551 18.0656 41.1665 16.3239 41.1665 14.5938C41.1665 14.1221 41.1535 13.6192 41.1274 13.0859L41.0972 12.543C41.0485 11.7417 40.9016 11.0156 40.645 10.374H40.644C40.4429 9.86129 40.1641 9.41519 39.769 9.12402L39.5923 9.00879C39.3741 8.88409 39.1309 8.7961 38.8687 8.73926C38.9164 8.73776 38.9645 8.73535 39.0122 8.73535Z" fill="#0C1436" stroke="#0C1436" stroke-width="1.24031"/>
<path d="M56.8032 8.92676C56.607 9.05971 56.4226 9.21462 56.2515 9.39258C55.6143 10.0552 55.128 10.8727 54.7847 11.8291L54.7827 11.8359L54.7798 11.8428C54.4708 12.7698 54.2577 13.731 54.1392 14.7256C54.0235 15.6739 53.9644 16.5074 53.9644 17.2217C53.9644 17.9957 54.0108 18.8792 54.103 19.8701L54.105 19.8857C54.2239 20.8853 54.4496 21.8618 54.7827 22.8135C55.1288 23.8023 55.6442 24.639 56.3364 25.3057C56.5523 25.5135 56.788 25.6879 57.0405 25.833C56.2059 25.6463 55.4391 25.3377 54.7368 24.9092C53.5661 24.1948 52.6292 23.2509 51.9224 22.0693L51.7847 21.8291C51.0907 20.5433 50.7378 19.0915 50.7378 17.46C50.7378 15.7532 51.0939 14.2531 51.7905 12.9443L51.7925 12.9404C52.4906 11.6077 53.4685 10.5672 54.7329 9.80859L54.7397 9.80469C55.3704 9.41584 56.0573 9.12242 56.8032 8.92676ZM60.9194 8.75586C62.0578 8.92394 63.027 9.26595 63.8384 9.76953V9.77051L63.8491 9.77637C65.0781 10.5054 65.993 11.533 66.6011 12.875L66.606 12.8848C67.2405 14.2174 67.5688 15.8054 67.5688 17.665C67.5688 19.316 67.1943 20.7615 66.4614 22.0195C65.7228 23.2644 64.7128 24.2444 63.4204 24.9648L63.4165 24.9678C62.794 25.3205 62.1247 25.5862 61.4077 25.7666C61.5979 25.6417 61.7776 25.4982 61.9438 25.332C62.6077 24.6682 63.0991 23.8569 63.4224 22.9121L63.4243 22.9072C63.7345 21.9767 63.9373 21.0219 64.0327 20.0439V20.042C64.1249 19.0743 64.1714 18.224 64.1714 17.4941C64.1714 16.7182 64.1131 15.8461 63.9985 14.8799C63.903 13.8532 63.6882 12.8601 63.353 11.9023C63.0502 11.0372 62.6182 10.2882 62.0513 9.66797L61.7993 9.41016C61.5367 9.14099 61.2425 8.92354 60.9194 8.75586Z" fill="#0C1436" stroke="#0C1436" stroke-width="1.24031"/>
<path d="M76.8433 8.56152C76.9548 8.78447 77.0402 9.03021 77.0981 9.30078L77.103 9.32129L77.1089 9.34082C77.1999 9.65942 77.2716 9.89841 77.3218 10.0488L77.561 10.7656L78.2173 10.3906C78.3891 10.2925 78.6157 10.1831 78.8999 10.0605C78.3826 10.5985 77.9569 11.2415 77.6187 11.9814L77.562 12.1045V21.1387C77.5621 21.7801 77.6775 22.4659 77.895 23.1914L77.8989 23.2041L77.9028 23.2158C78.1329 23.8829 78.4714 24.474 78.9175 24.9844C78.7566 24.8997 78.607 24.8174 78.4712 24.7344L77.5278 24.1582V25.2637C77.5278 25.7544 77.517 26.2457 77.4946 26.7363L77.4937 26.75V26.7646C77.4937 27.0303 77.4967 27.2959 77.5024 27.5615L77.5278 28.333V31.0947C77.5279 31.3693 77.5744 31.6399 77.6626 31.9043L77.6714 31.9326L77.6841 31.96C77.7489 32.1057 77.8424 32.2391 77.9663 32.3496C77.3217 32.3041 76.6664 32.2813 76.0005 32.2812C75.3271 32.2812 74.6427 32.3043 73.9478 32.3506C73.9414 32.351 73.9346 32.3511 73.9282 32.3516C74.0108 32.2822 74.0847 32.1993 74.1499 32.1016L74.1519 32.1025C74.1579 32.0941 74.1626 32.0847 74.1685 32.0762C74.1697 32.0741 74.1721 32.0724 74.1733 32.0703L74.1724 32.0693C74.357 31.7961 74.438 31.4843 74.438 31.1621V21.2109C74.4607 17.8683 74.4722 14.5367 74.4722 11.2168C74.4722 10.9112 74.4307 10.5907 74.354 10.2588C74.2933 9.99573 74.1562 9.74127 73.9087 9.5625C73.8064 9.48865 73.6968 9.43717 73.5854 9.40137C74.6363 9.2011 75.6527 8.9494 76.6323 8.63672L76.6782 8.62207L76.7212 8.60059C76.7636 8.57942 76.8024 8.56363 76.8384 8.55273L76.8433 8.56152ZM82.478 8.9043C83.5452 8.9043 84.4743 9.13413 85.2817 9.57812C86.1134 10.0355 86.8205 10.6475 87.4048 11.4199L87.4106 11.4277L87.4165 11.4346C88.0281 12.1941 88.4939 13.0495 88.812 14.0039C89.1324 14.9652 89.2905 15.9332 89.2905 16.9102C89.2905 18.6826 88.9959 20.2342 88.4204 21.5762C87.8544 22.8733 86.9917 23.8895 85.8247 24.6396C85.0916 25.0967 84.2186 25.4155 83.1958 25.5869C83.4811 25.4386 83.7425 25.2521 83.9741 25.0205C84.6252 24.3693 85.0741 23.5659 85.3267 22.6289C85.5888 21.7436 85.7446 20.8245 85.7915 19.873C85.8375 18.934 85.8599 18.105 85.8599 17.3877C85.8599 16.9014 85.8487 16.3253 85.8257 15.6611C85.8078 15.1295 85.7634 14.5924 85.6929 14.0498L85.6138 13.5049C85.5281 12.8343 85.3796 12.2019 85.1626 11.6104L85.064 11.3574C84.808 10.6511 84.4293 10.0552 83.9146 9.59473C83.4972 9.22148 82.9993 8.99795 82.4429 8.90625C82.455 8.9059 82.4667 8.9043 82.478 8.9043Z" fill="#0C1436" stroke="#0C1436" stroke-width="1.24031"/>
<path d="M99.6714 8.53027C99.6707 11.1753 99.6603 13.8308 99.6382 16.4971C99.6153 19.2266 99.604 21.9561 99.604 24.6855C99.604 25.0676 99.6698 25.5556 100.008 25.8721C99.3192 25.8266 98.6292 25.8047 97.9399 25.8047C97.3083 25.8047 96.6669 25.8241 96.0171 25.8623C96.112 25.7643 96.1866 25.6479 96.2358 25.5156L96.2349 25.5146C96.354 25.2539 96.4116 24.9753 96.4116 24.6855V11.1494C96.4116 10.8814 96.3856 10.5965 96.3354 10.2969H96.3345C96.2938 10.043 96.1816 9.77923 95.9438 9.58594C95.8123 9.47906 95.6666 9.41385 95.52 9.37695C95.8978 9.3161 96.2706 9.25102 96.6382 9.17969L97.2153 9.0625L97.229 9.05957C97.9786 8.88325 98.7282 8.70661 99.4771 8.53027H99.6714ZM97.77 0.620117C98.3289 0.620225 98.7795 0.813325 99.1616 1.21289L99.1812 1.23242C99.5808 1.61469 99.7738 2.066 99.7739 2.625C99.7739 3.1564 99.5842 3.61545 99.1714 4.02832L99.1616 4.03809C98.7795 4.43759 98.3288 4.63075 97.77 4.63086C97.2387 4.63086 96.7794 4.44101 96.3667 4.02832C95.9539 3.61545 95.7642 3.1564 95.7642 2.625C95.7642 2.13591 95.9117 1.72902 96.2163 1.37891L96.3569 1.23242L96.3667 1.22266C96.7794 0.809901 97.2386 0.620117 97.77 0.620117Z" fill="#0C1436" stroke="#0C1436" stroke-width="1.24031"/>
<path d="M114.734 8.97559C115.861 9.15888 116.806 9.58088 117.584 10.2275C118.612 11.0813 119.166 12.3625 119.167 14.1826V19.3311C119.144 19.9688 119.133 20.628 119.133 21.3086V21.3301C119.156 21.9962 119.191 22.6626 119.237 23.3291L119.238 23.3447L119.24 23.3594C119.291 23.7946 119.394 24.2181 119.547 24.6289L119.549 24.6357L119.552 24.6426C119.671 24.9381 119.875 25.179 120.16 25.3369C120.432 25.4885 120.741 25.543 121.049 25.543C121.131 25.543 121.213 25.5378 121.293 25.5303C120.814 25.8709 120.25 26.042 119.583 26.042C118.694 26.042 118.051 25.8456 117.596 25.5137C117.134 25.1762 116.741 24.6255 116.452 23.7979L116.218 23.1299L116.265 23.084L116.247 22.8037C116.196 22.0092 116.158 21.2144 116.132 20.4199L116.111 19.625C116.088 18.5426 116.088 17.4603 116.111 16.3779L116.126 15.627L116.111 15.6289V15.2393C116.111 14.8248 116.1 14.2788 116.078 13.6035C116.078 12.8583 116.004 12.1236 115.86 11.4014C115.713 10.6417 115.462 9.97439 115.093 9.41699H115.094C114.988 9.24957 114.867 9.10285 114.734 8.97559ZM112.378 16.751C111.487 17.1924 110.735 17.7845 110.132 18.5322C109.458 19.3684 109.142 20.4127 109.142 21.6152C109.142 22.1216 109.207 22.6552 109.328 23.2129L109.333 23.2383C109.491 23.8434 109.761 24.3752 110.149 24.8193L110.163 24.835L110.177 24.8496C110.655 25.3275 111.279 25.543 111.979 25.543C112.419 25.543 112.859 25.4389 113.296 25.2529C113.27 25.2675 113.245 25.2836 113.218 25.2979L113.212 25.3018C112.503 25.6961 111.644 25.9052 110.616 25.9053C109.914 25.9053 109.19 25.7553 108.441 25.4443C107.736 25.1201 107.147 24.6694 106.666 24.0898C106.235 23.5445 106.019 22.9213 106.019 22.1953C106.019 21.4401 106.205 20.7983 106.565 20.25C106.975 19.6352 107.489 19.1126 108.107 18.6797L108.118 18.6719C108.764 18.1981 109.416 17.8137 110.074 17.5156C110.826 17.1958 111.595 16.9409 112.378 16.751ZM110.901 9.11035L110.891 9.11816C110.239 9.60708 109.78 10.2593 109.515 11.0537L109.505 11.0859L109.498 11.1182C109.449 11.3381 109.412 11.5612 109.387 11.7871C109.367 11.9463 109.336 12.1209 109.294 12.3115L109.288 12.3389L109.285 12.3662C109.275 12.4406 109.253 12.4766 109.234 12.499C109.212 12.5239 109.164 12.5642 109.058 12.6035C108.746 12.7001 108.471 12.7441 108.228 12.7441C107.935 12.7441 107.649 12.6843 107.366 12.5625C107.297 12.5252 107.26 12.4852 107.237 12.4424C107.208 12.3907 107.178 12.2978 107.178 12.1367C107.178 12.0128 107.193 11.926 107.211 11.8672C107.241 11.7995 107.27 11.7321 107.298 11.665C107.332 11.5854 107.367 11.5065 107.401 11.4277L107.403 11.4229C107.72 10.6696 108.179 10.1469 108.772 9.81348C109.432 9.44231 110.156 9.19183 110.95 9.06641C110.956 9.0654 110.963 9.06447 110.969 9.06348C110.947 9.07913 110.923 9.09417 110.901 9.11035Z" fill="#0C1436" stroke="#0C1436" stroke-width="1.24031"/>
<mask id="path-7-inside-1_553_2894" fill="white">
<path d="M28.6026 38.4786V37.7461H30.7654V38.4786H28.6026ZM28.6026 40.3996V39.6879H30.6963V40.3996H28.6026ZM28.0981 37.7461H28.8997V42.5832H28.0981V37.7461Z"/>
</mask>
<path d="M28.6026 38.4786V37.7461H30.7654V38.4786H28.6026ZM28.6026 40.3996V39.6879H30.6963V40.3996H28.6026ZM28.0981 37.7461H28.8997V42.5832H28.0981V37.7461Z" fill="#0C1436"/>
<path d="M28.6026 38.4786H27.3623V39.7189H28.6026V38.4786ZM28.6026 37.7461V36.5058H27.3623V37.7461H28.6026ZM30.7654 37.7461H32.0058V36.5058H30.7654V37.7461ZM30.7654 38.4786V39.7189H32.0058V38.4786H30.7654ZM28.6026 40.3996H27.3623V41.6399H28.6026V40.3996ZM28.6026 39.6879V38.4475H27.3623V39.6879H28.6026ZM30.6963 39.6879H31.9367V38.4475H30.6963V39.6879ZM30.6963 40.3996V41.6399H31.9367V40.3996H30.6963ZM28.0981 37.7461V36.5058H26.8578V37.7461H28.0981ZM28.8997 37.7461H30.14V36.5058H28.8997V37.7461ZM28.8997 42.5832V43.8235H30.14V42.5832H28.8997ZM28.0981 42.5832H26.8578V43.8235H28.0981V42.5832ZM28.6026 38.4786H29.8429V37.7461H28.6026H27.3623V38.4786H28.6026ZM28.6026 37.7461V38.9864H30.7654V37.7461V36.5058H28.6026V37.7461ZM30.7654 37.7461H29.5251V38.4786H30.7654H32.0058V37.7461H30.7654ZM30.7654 38.4786V37.2383H28.6026V38.4786V39.7189H30.7654V38.4786ZM28.6026 40.3996H29.8429V39.6879H28.6026H27.3623V40.3996H28.6026ZM28.6026 39.6879V40.9282H30.6963V39.6879V38.4475H28.6026V39.6879ZM30.6963 39.6879H29.456V40.3996H30.6963H31.9367V39.6879H30.6963ZM30.6963 40.3996V39.1593H28.6026V40.3996V41.6399H30.6963V40.3996ZM28.0981 37.7461V38.9864H28.8997V37.7461V36.5058H28.0981V37.7461ZM28.8997 37.7461H27.6594V42.5832H28.8997H30.14V37.7461H28.8997ZM28.8997 42.5832V41.3428H28.0981V42.5832V43.8235H28.8997V42.5832ZM28.0981 42.5832H29.3385V37.7461H28.0981H26.8578V42.5832H28.0981Z" fill="#0C1436" mask="url(#path-7-inside-1_553_2894)"/>
<mask id="path-9-inside-2_553_2894" fill="white">
<path d="M34.5602 41.3394L34.7121 40.6483H36.958L37.1169 41.3394H34.5602ZM35.8247 39.1143L35.0646 40.8902L35.0508 41.0698L34.3805 42.5831H33.4614L35.8247 37.4766L38.188 42.5831H37.2689L36.6125 41.1114L36.5917 40.9109L35.8247 39.1143Z"/>
</mask>
<path d="M34.5602 41.3394L34.7121 40.6483H36.958L37.1169 41.3394H34.5602ZM35.8247 39.1143L35.0646 40.8902L35.0508 41.0698L34.3805 42.5831H33.4614L35.8247 37.4766L38.188 42.5831H37.2689L36.6125 41.1114L36.5917 40.9109L35.8247 39.1143Z" fill="#0C1436"/>
<path d="M34.5602 41.3394L33.3488 41.073L33.0175 42.5797H34.5602V41.3394ZM34.7121 40.6483V39.408H33.715L33.5008 40.3819L34.7121 40.6483ZM36.958 40.6483L38.1668 40.3704L37.9455 39.408H36.958V40.6483ZM37.1169 41.3394V42.5797H38.6748L38.3257 41.0614L37.1169 41.3394ZM35.8247 39.1143L36.9654 38.6273L35.8261 35.9587L34.6844 38.6263L35.8247 39.1143ZM35.0646 40.8902L33.9244 40.4022L33.8438 40.5905L33.828 40.7947L35.0646 40.8902ZM35.0508 41.0698L36.1848 41.5721L36.271 41.3775L36.2874 41.1653L35.0508 41.0698ZM34.3805 42.5831V43.8235H35.1877L35.5146 43.0854L34.3805 42.5831ZM33.4614 42.5831L32.3358 42.0622L31.5207 43.8235H33.4614V42.5831ZM35.8247 37.4766L36.9503 36.9556L35.8247 34.5234L34.6991 36.9556L35.8247 37.4766ZM38.188 42.5831V43.8235H40.1287L39.3136 42.0622L38.188 42.5831ZM37.2689 42.5831L36.1362 43.0884L36.464 43.8235H37.2689V42.5831ZM36.6125 41.1114L35.3787 41.2389L35.3991 41.4358L35.4797 41.6166L36.6125 41.1114ZM36.5917 40.9109L37.8255 40.7834L37.8062 40.5966L37.7324 40.4239L36.5917 40.9109ZM34.5602 41.3394L35.7715 41.6058L35.9235 40.9147L34.7121 40.6483L33.5008 40.3819L33.3488 41.073L34.5602 41.3394ZM34.7121 40.6483V41.8886H36.958V40.6483V39.408H34.7121V40.6483ZM36.958 40.6483L35.7493 40.9263L35.9082 41.6173L37.1169 41.3394L38.3257 41.0614L38.1668 40.3704L36.958 40.6483ZM37.1169 41.3394V40.099H34.5602V41.3394V42.5797H37.1169V41.3394ZM35.8247 39.1143L34.6844 38.6263L33.9244 40.4022L35.0646 40.8902L36.2049 41.3782L36.965 39.6023L35.8247 39.1143ZM35.0646 40.8902L33.828 40.7947L33.8141 40.9743L35.0508 41.0698L36.2874 41.1653L36.3013 40.9857L35.0646 40.8902ZM35.0508 41.0698L33.9167 40.5676L33.2465 42.0809L34.3805 42.5831L35.5146 43.0854L36.1848 41.5721L35.0508 41.0698ZM34.3805 42.5831V41.3428H33.4614V42.5831V43.8235H34.3805V42.5831ZM33.4614 42.5831L34.587 43.1041L36.9503 37.9975L35.8247 37.4766L34.6991 36.9556L32.3358 42.0622L33.4614 42.5831ZM35.8247 37.4766L34.6991 37.9975L37.0624 43.1041L38.188 42.5831L39.3136 42.0622L36.9503 36.9556L35.8247 37.4766ZM38.188 42.5831V41.3428H37.2689V42.5831V43.8235H38.188V42.5831ZM37.2689 42.5831L38.4017 42.0779L37.7452 40.6061L36.6125 41.1114L35.4797 41.6166L36.1362 43.0884L37.2689 42.5831ZM36.6125 41.1114L37.8462 40.9838L37.8255 40.7834L36.5917 40.9109L35.358 41.0385L35.3787 41.2389L36.6125 41.1114ZM36.5917 40.9109L37.7324 40.4239L36.9654 38.6273L35.8247 39.1143L34.684 39.6013L35.4511 41.3979L36.5917 40.9109Z" fill="#0C1436" mask="url(#path-9-inside-2_553_2894)"/>
<mask id="path-11-inside-3_553_2894" fill="white">
<path d="M41.8352 41.0293C41.9412 41.2136 42.054 41.3772 42.1737 41.5199C42.2981 41.6582 42.4341 41.7664 42.5815 41.8448C42.7289 41.9184 42.8947 41.9553 43.079 41.9553C43.3001 41.9553 43.4798 41.8954 43.618 41.7757C43.7562 41.6558 43.8253 41.5015 43.8253 41.3126C43.8253 41.133 43.7815 40.9902 43.694 40.8842C43.6065 40.7737 43.4844 40.6815 43.3278 40.6078C43.1757 40.5295 42.9984 40.4535 42.7957 40.3798C42.6759 40.3383 42.5423 40.2831 42.3949 40.214C42.2475 40.1402 42.107 40.0504 41.9734 39.9444C41.8398 39.8339 41.7292 39.7003 41.6417 39.5437C41.5542 39.3824 41.5104 39.189 41.5104 38.9632C41.5104 38.7052 41.5772 38.4795 41.7108 38.286C41.8444 38.0879 42.0241 37.9359 42.2498 37.8299C42.4801 37.7194 42.7404 37.6641 43.0306 37.6641C43.3162 37.6641 43.565 37.7148 43.777 37.8161C43.9888 37.9174 44.1662 38.0465 44.309 38.2031C44.4564 38.3597 44.5716 38.5232 44.6546 38.6937L43.9912 39.0668C43.9312 38.9471 43.8553 38.8365 43.7631 38.7352C43.671 38.6292 43.5627 38.5463 43.4383 38.4864C43.3186 38.4219 43.178 38.3897 43.0168 38.3897C42.7911 38.3897 42.6253 38.4426 42.5193 38.5486C42.4133 38.6499 42.3603 38.7697 42.3603 38.9079C42.3603 39.0323 42.3972 39.1452 42.4709 39.2465C42.5492 39.3432 42.669 39.4354 42.8303 39.5229C42.9915 39.6105 43.2011 39.7003 43.4591 39.7924C43.6019 39.8431 43.7447 39.9076 43.8875 39.9859C44.0349 40.0642 44.1685 40.1632 44.2883 40.2831C44.408 40.3982 44.5025 40.5341 44.5716 40.6907C44.6453 40.8473 44.6821 41.0316 44.6821 41.2435C44.6821 41.4693 44.6384 41.672 44.5509 41.8516C44.4633 42.0313 44.3436 42.1833 44.1915 42.3077C44.0395 42.4275 43.8668 42.5196 43.6733 42.5841C43.4844 42.6532 43.2863 42.6878 43.079 42.6878C42.7934 42.6878 42.5285 42.6325 42.2844 42.5219C42.0448 42.4067 41.8352 42.2548 41.6555 42.0658C41.4759 41.877 41.333 41.672 41.2271 41.4508L41.8352 41.0293Z"/>
</mask>
<path d="M41.8352 41.0293C41.9412 41.2136 42.054 41.3772 42.1737 41.5199C42.2981 41.6582 42.4341 41.7664 42.5815 41.8448C42.7289 41.9184 42.8947 41.9553 43.079 41.9553C43.3001 41.9553 43.4798 41.8954 43.618 41.7757C43.7562 41.6558 43.8253 41.5015 43.8253 41.3126C43.8253 41.133 43.7815 40.9902 43.694 40.8842C43.6065 40.7737 43.4844 40.6815 43.3278 40.6078C43.1757 40.5295 42.9984 40.4535 42.7957 40.3798C42.6759 40.3383 42.5423 40.2831 42.3949 40.214C42.2475 40.1402 42.107 40.0504 41.9734 39.9444C41.8398 39.8339 41.7292 39.7003 41.6417 39.5437C41.5542 39.3824 41.5104 39.189 41.5104 38.9632C41.5104 38.7052 41.5772 38.4795 41.7108 38.286C41.8444 38.0879 42.0241 37.9359 42.2498 37.8299C42.4801 37.7194 42.7404 37.6641 43.0306 37.6641C43.3162 37.6641 43.565 37.7148 43.777 37.8161C43.9888 37.9174 44.1662 38.0465 44.309 38.2031C44.4564 38.3597 44.5716 38.5232 44.6546 38.6937L43.9912 39.0668C43.9312 38.9471 43.8553 38.8365 43.7631 38.7352C43.671 38.6292 43.5627 38.5463 43.4383 38.4864C43.3186 38.4219 43.178 38.3897 43.0168 38.3897C42.7911 38.3897 42.6253 38.4426 42.5193 38.5486C42.4133 38.6499 42.3603 38.7697 42.3603 38.9079C42.3603 39.0323 42.3972 39.1452 42.4709 39.2465C42.5492 39.3432 42.669 39.4354 42.8303 39.5229C42.9915 39.6105 43.2011 39.7003 43.4591 39.7924C43.6019 39.8431 43.7447 39.9076 43.8875 39.9859C44.0349 40.0642 44.1685 40.1632 44.2883 40.2831C44.408 40.3982 44.5025 40.5341 44.5716 40.6907C44.6453 40.8473 44.6821 41.0316 44.6821 41.2435C44.6821 41.4693 44.6384 41.672 44.5509 41.8516C44.4633 42.0313 44.3436 42.1833 44.1915 42.3077C44.0395 42.4275 43.8668 42.5196 43.6733 42.5841C43.4844 42.6532 43.2863 42.6878 43.079 42.6878C42.7934 42.6878 42.5285 42.6325 42.2844 42.5219C42.0448 42.4067 41.8352 42.2548 41.6555 42.0658C41.4759 41.877 41.333 41.672 41.2271 41.4508L41.8352 41.0293Z" fill="#0C1436"/>
<path d="M41.8352 41.0293L42.9104 40.411L42.2377 39.2412L41.1287 40.0099L41.8352 41.0293ZM42.1737 41.5199L41.2235 42.317L41.2373 42.3335L41.2517 42.3495L42.1737 41.5199ZM42.5815 41.8448L41.9995 42.9401L42.0132 42.9473L42.027 42.9543L42.5815 41.8448ZM43.618 41.7757L44.4302 42.713L44.4306 42.7127L43.618 41.7757ZM43.694 40.8842L42.7216 41.6542L42.7296 41.6642L42.7377 41.6741L43.694 40.8842ZM43.3278 40.6078L42.7599 41.7105L42.7798 41.7207L42.7999 41.7302L43.3278 40.6078ZM42.7957 40.3798L43.2193 39.2141L43.2107 39.211L43.202 39.208L42.7957 40.3798ZM42.3949 40.214L41.84 41.3232L41.8541 41.3303L41.8685 41.337L42.3949 40.214ZM41.9734 39.9444L41.1828 40.9001L41.1927 40.9083L41.2027 40.9163L41.9734 39.9444ZM41.6417 39.5437L40.5516 40.1353L40.5553 40.142L40.559 40.1487L41.6417 39.5437ZM41.7108 38.286L42.7315 38.9908L42.739 38.9797L41.7108 38.286ZM42.2498 37.8299L42.7769 38.9527L42.7863 38.9482L42.2498 37.8299ZM43.777 37.8161L44.3121 36.6972L44.3119 36.6971L43.777 37.8161ZM44.309 38.2031L43.3926 39.0389L43.3991 39.0461L43.4058 39.0532L44.309 38.2031ZM44.6546 38.6937L45.2626 39.7748L46.2812 39.2018L45.7698 38.151L44.6546 38.6937ZM43.9912 39.0668L42.8821 39.6222L43.4648 40.7859L44.5992 40.1479L43.9912 39.0668ZM43.7631 38.7352L42.8269 39.5488L42.8362 39.5594L42.8457 39.5699L43.7631 38.7352ZM43.4383 38.4864L42.85 39.5783L42.8749 39.5918L42.9004 39.604L43.4383 38.4864ZM42.5193 38.5486L43.3764 39.4451L43.3865 39.4355L43.3963 39.4256L42.5193 38.5486ZM42.4709 39.2465L41.4681 39.9764L41.4868 40.0021L41.5069 40.0268L42.4709 39.2465ZM42.8303 39.5229L43.4221 38.433L43.4219 38.4328L42.8303 39.5229ZM43.4591 39.7924L43.042 40.9605L43.0439 40.9611L43.4591 39.7924ZM43.8875 39.9859L43.2912 41.0735L43.2984 41.0774L43.3056 41.0812L43.8875 39.9859ZM44.2883 40.2831L43.4109 41.1598L43.4198 41.1686L43.4288 41.1773L44.2883 40.2831ZM44.5716 40.6907L43.4368 41.1913L43.443 41.2053L43.4494 41.2191L44.5716 40.6907ZM44.5509 41.8516L43.4359 41.3083L43.4358 41.3085L44.5509 41.8516ZM44.1915 42.3077L44.9589 43.2821L44.968 43.275L44.9769 43.2677L44.1915 42.3077ZM43.6733 42.5841L43.2814 41.4073L43.2641 41.4131L43.2471 41.4193L43.6733 42.5841ZM42.2844 42.5219L41.7469 43.6398L41.7598 43.6459L41.7728 43.6518L42.2844 42.5219ZM41.6555 42.0658L40.7568 42.9207L40.7568 42.9207L41.6555 42.0658ZM41.2271 41.4508L40.5205 40.4314L39.6518 41.0336L40.1085 41.9868L41.2271 41.4508ZM41.8352 41.0293L40.76 41.6476C40.8972 41.8862 41.0508 42.1111 41.2235 42.317L42.1737 41.5199L43.124 40.7228C43.0572 40.6432 42.9852 40.541 42.9104 40.411L41.8352 41.0293ZM42.1737 41.5199L41.2517 42.3495C41.4622 42.5834 41.7104 42.7865 41.9995 42.9401L42.5815 41.8448L43.1634 40.7494C43.1577 40.7464 43.1341 40.733 43.0958 40.6904L42.1737 41.5199ZM42.5815 41.8448L42.027 42.9543C42.3659 43.1236 42.7251 43.1956 43.079 43.1956V41.9553V40.715C43.0698 40.715 43.073 40.7141 43.0854 40.7169C43.0984 40.7198 43.1162 40.7254 43.1359 40.7353L42.5815 41.8448ZM43.079 41.9553V43.1956C43.5333 43.1956 44.0217 43.067 44.4302 42.713L43.618 41.7757L42.8057 40.8383C42.8639 40.7879 42.9284 40.7534 42.9874 40.7337C43.0432 40.7151 43.0781 40.715 43.079 40.715V41.9553ZM43.618 41.7757L44.4306 42.7127C44.85 42.349 45.0656 41.8481 45.0656 41.3126H43.8253H42.585C42.585 41.2527 42.5968 41.1629 42.6415 41.063C42.6867 40.9621 42.7493 40.8872 42.8054 40.8386L43.618 41.7757ZM43.8253 41.3126H45.0656C45.0656 40.9341 44.9712 40.4829 44.6503 40.0943L43.694 40.8842L42.7377 41.6741C42.5918 41.4974 42.585 41.3319 42.585 41.3126H43.8253ZM43.694 40.8842L44.6664 40.1142C44.4361 39.8235 44.1474 39.6227 43.8557 39.4854L43.3278 40.6078L42.7999 41.7302C42.8214 41.7403 42.7768 41.7238 42.7216 41.6542L43.694 40.8842ZM43.3278 40.6078L43.8957 39.5052C43.6869 39.3976 43.4595 39.3014 43.2193 39.2141L42.7957 40.3798L42.3721 41.5456C42.5373 41.6056 42.6646 41.6614 42.7599 41.7105L43.3278 40.6078ZM42.7957 40.3798L43.202 39.208C43.1322 39.1838 43.0394 39.1463 42.9213 39.0909L42.3949 40.214L41.8685 41.337C42.0452 41.4199 42.2196 41.4928 42.3893 41.5517L42.7957 40.3798ZM42.3949 40.214L42.9498 39.1047C42.8814 39.0705 42.813 39.0273 42.7441 38.9726L41.9734 39.9444L41.2027 40.9163C41.4011 41.0735 41.6136 41.2099 41.84 41.3232L42.3949 40.214ZM41.9734 39.9444L42.764 38.9887C42.7529 38.9796 42.7399 38.9662 42.7244 38.9386L41.6417 39.5437L40.559 40.1487C40.7186 40.4343 40.9267 40.6882 41.1828 40.9001L41.9734 39.9444ZM41.6417 39.5437L42.7318 38.952C42.7389 38.9651 42.744 38.9767 42.7474 38.986C42.7508 38.9953 42.7524 39.0015 42.7529 39.0038C42.7539 39.0082 42.7507 38.9963 42.7507 38.9632H41.5104H40.2701C40.2701 39.3489 40.3454 39.7553 40.5516 40.1353L41.6417 39.5437ZM41.5104 38.9632H42.7507C42.7507 38.9421 42.7533 38.9407 42.7498 38.9524C42.7482 38.9579 42.7456 38.9648 42.7421 38.9722C42.7386 38.9796 42.7348 38.9859 42.7314 38.9908L41.7108 38.286L40.6902 37.5812C40.3996 38.002 40.2701 38.479 40.2701 38.9632H41.5104ZM41.7108 38.286L42.739 38.9797C42.7431 38.9735 42.7454 38.9715 42.747 38.9702C42.7488 38.9687 42.7569 38.962 42.7769 38.9526L42.2498 37.8299L41.7227 36.7072C41.3033 36.904 40.9469 37.2005 40.6826 37.5923L41.7108 38.286ZM42.2498 37.8299L42.7863 38.9482C42.828 38.9282 42.901 38.9044 43.0306 38.9044V37.6641V36.4238C42.5798 36.4238 42.1323 36.5106 41.7132 36.7117L42.2498 37.8299ZM43.0306 37.6641V38.9044C43.1701 38.9044 43.229 38.9289 43.242 38.9351L43.777 37.8161L44.3119 36.6971C43.901 36.5007 43.4624 36.4238 43.0306 36.4238V37.6641ZM43.777 37.8161L43.2418 38.9351C43.3248 38.9747 43.3683 39.0123 43.3926 39.0389L44.309 38.2031L45.2254 37.3673C44.964 37.0807 44.6528 36.8601 44.3121 36.6972L43.777 37.8161ZM44.309 38.2031L43.4058 39.0532C43.4789 39.1308 43.518 39.1926 43.5393 39.2364L44.6546 38.6937L45.7698 38.151C45.6252 37.8538 45.4339 37.5887 45.2122 37.3531L44.309 38.2031ZM44.6546 38.6937L44.0465 37.6127L43.3831 37.9858L43.9912 39.0668L44.5992 40.1479L45.2626 39.7748L44.6546 38.6937ZM43.9912 39.0668L45.1002 38.5115C44.9887 38.2889 44.8479 38.0845 44.6805 37.9005L43.7631 38.7352L42.8457 39.5699C42.8626 39.5885 42.8737 39.6053 42.8821 39.6222L43.9912 39.0668ZM43.7631 38.7352L44.6992 37.9215C44.4982 37.6903 44.2551 37.5031 43.9762 37.3688L43.4383 38.4864L42.9004 39.604C42.8872 39.5977 42.8728 39.589 42.8587 39.5782C42.8447 39.5675 42.8341 39.557 42.8269 39.5488L43.7631 38.7352ZM43.4383 38.4864L44.0267 37.3946C43.6951 37.2159 43.3451 37.1494 43.0168 37.1494V38.3897V39.63C43.011 39.63 42.942 39.6279 42.85 39.5783L43.4383 38.4864ZM43.0168 38.3897V37.1494C42.6267 37.1494 42.0758 37.238 41.6423 37.6716L42.5193 38.5486L43.3963 39.4256C43.1747 39.6473 42.9555 39.63 43.0168 39.63V38.3897ZM42.5193 38.5486L41.6622 37.6521C41.3281 37.9715 41.12 38.4087 41.12 38.9079H42.3603H43.6006C43.6006 39.0021 43.5815 39.1095 43.5343 39.2163C43.4878 39.3215 43.4268 39.3969 43.3764 39.4451L42.5193 38.5486ZM42.3603 38.9079H41.12C41.12 39.2968 41.2413 39.6647 41.4681 39.9764L42.4709 39.2465L43.4737 38.5166C43.509 38.565 43.5428 38.6269 43.5669 38.7006C43.591 38.7744 43.6006 38.8456 43.6006 38.9079H42.3603ZM42.4709 39.2465L41.5069 40.0268C41.7242 40.2953 41.9956 40.4812 42.2386 40.613L42.8303 39.5229L43.4219 38.4328C43.4051 38.4237 43.3931 38.4165 43.3853 38.4115C43.3774 38.4064 43.3746 38.4042 43.3759 38.4052C43.3771 38.4061 43.3835 38.4111 43.3935 38.4207C43.4035 38.4302 43.418 38.4452 43.435 38.4661L42.4709 39.2465ZM42.8303 39.5229L42.2384 40.6129C42.476 40.7419 42.7503 40.8563 43.042 40.9605L43.4591 39.7924L43.8761 38.6243C43.652 38.5443 43.507 38.479 43.4221 38.433L42.8303 39.5229ZM43.4591 39.7924L43.0439 40.9611C43.1201 40.9882 43.2024 41.0248 43.2912 41.0735L43.8875 39.9859L44.4838 38.8983C44.2869 38.7904 44.0837 38.6981 43.8742 38.6236L43.4591 39.7924ZM43.8875 39.9859L43.3056 41.0812C43.3428 41.101 43.3771 41.126 43.4109 41.1598L44.2883 40.2831L45.1656 39.4063C44.9599 39.2005 44.727 39.0274 44.4694 38.8906L43.8875 39.9859ZM44.2883 40.2831L43.4288 41.1773C43.4299 41.1783 43.4301 41.1787 43.4305 41.1792C43.4308 41.1797 43.4332 41.1832 43.4368 41.1913L44.5716 40.6907L45.7064 40.1901C45.5741 39.8902 45.3876 39.6194 45.1478 39.3888L44.2883 40.2831ZM44.5716 40.6907L43.4494 41.2191C43.44 41.199 43.4379 41.1874 43.4383 41.1895C43.4388 41.1921 43.4418 41.2089 43.4418 41.2435H44.6821H45.9224C45.9224 40.8895 45.8609 40.5174 45.6937 40.1623L44.5716 40.6907ZM44.6821 41.2435H43.4418C43.4418 41.2762 43.4387 41.2951 43.4369 41.3032C43.4353 41.3108 43.4343 41.3115 43.4359 41.3083L44.5509 41.8516L45.6659 42.3949C45.8461 42.0251 45.9224 41.6328 45.9224 41.2435H44.6821ZM44.5509 41.8516L43.4358 41.3085C43.4254 41.3299 43.4171 41.3388 43.4061 41.3477L44.1915 42.3077L44.9769 43.2677C45.2701 43.0278 45.5013 42.7328 45.666 42.3947L44.5509 41.8516ZM44.1915 42.3077L43.4241 41.3333C43.3902 41.36 43.3458 41.3858 43.2814 41.4073L43.6733 42.5841L44.0652 43.7608C44.3877 43.6534 44.6888 43.4949 44.9589 43.2821L44.1915 42.3077ZM43.6733 42.5841L43.2471 41.4193C43.1989 41.4369 43.1453 41.4475 43.079 41.4475V42.6878V43.9281C43.4272 43.9281 43.77 43.8694 44.0994 43.7489L43.6733 42.5841ZM43.079 42.6878V41.4475C42.9582 41.4475 42.8691 41.4251 42.7959 41.392L42.2844 42.5219L41.7728 43.6518C42.188 43.8398 42.6286 43.9281 43.079 43.9281V42.6878ZM42.2844 42.5219L42.8218 41.4041C42.7148 41.3527 42.6283 41.2889 42.5542 41.211L41.6555 42.0658L40.7568 42.9207C41.0421 43.2206 41.3748 43.4608 41.7469 43.6398L42.2844 42.5219ZM41.6555 42.0658L42.5542 41.211C42.4584 41.1103 42.3919 41.0116 42.3456 40.9149L41.2271 41.4508L40.1085 41.9868C40.2741 42.3323 40.4934 42.6437 40.7568 42.9207L41.6555 42.0658ZM41.2271 41.4508L41.9336 42.4702L42.5417 42.0487L41.8352 41.0293L41.1287 40.0099L40.5205 40.4314L41.2271 41.4508Z" fill="#0C1436" mask="url(#path-11-inside-3_553_2894)"/>
<mask id="path-13-inside-4_553_2894" fill="white">
<path d="M48.6105 40.365V39.6118H52.0586V40.365H48.6105ZM51.5334 37.7461H52.3489V42.5832H51.5334V37.7461ZM48.2856 37.7461H49.1011V42.5832H48.2856V37.7461Z"/>
</mask>
<path d="M48.6105 40.365V39.6118H52.0586V40.365H48.6105ZM51.5334 37.7461H52.3489V42.5832H51.5334V37.7461ZM48.2856 37.7461H49.1011V42.5832H48.2856V37.7461Z" fill="#0C1436"/>
<path d="M48.6105 40.365H47.3702V41.6053H48.6105V40.365ZM48.6105 39.6118V38.3715H47.3702V39.6118H48.6105ZM52.0586 39.6118H53.2989V38.3715H52.0586V39.6118ZM52.0586 40.365V41.6053H53.2989V40.365H52.0586ZM51.5334 37.7461V36.5058H50.2931V37.7461H51.5334ZM52.3489 37.7461H53.5892V36.5058H52.3489V37.7461ZM52.3489 42.5832V43.8235H53.5892V42.5832H52.3489ZM51.5334 42.5832H50.2931V43.8235H51.5334V42.5832ZM48.2856 37.7461V36.5058H47.0453V37.7461H48.2856ZM49.1011 37.7461H50.3414V36.5058H49.1011V37.7461ZM49.1011 42.5832V43.8235H50.3414V42.5832H49.1011ZM48.2856 42.5832H47.0453V43.8235H48.2856V42.5832ZM48.6105 40.365H49.8508V39.6118H48.6105H47.3702V40.365H48.6105ZM48.6105 39.6118V40.8521H52.0586V39.6118V38.3715H48.6105V39.6118ZM52.0586 39.6118H50.8183V40.365H52.0586H53.2989V39.6118H52.0586ZM52.0586 40.365V39.1247H48.6105V40.365V41.6053H52.0586V40.365ZM51.5334 37.7461V38.9864H52.3489V37.7461V36.5058H51.5334V37.7461ZM52.3489 37.7461H51.1086V42.5832H52.3489H53.5892V37.7461H52.3489ZM52.3489 42.5832V41.3428H51.5334V42.5832V43.8235H52.3489V42.5832ZM51.5334 42.5832H52.7737V37.7461H51.5334H50.2931V42.5832H51.5334ZM48.2856 37.7461V38.9864H49.1011V37.7461V36.5058H48.2856V37.7461ZM49.1011 37.7461H47.8608V42.5832H49.1011H50.3414V37.7461H49.1011ZM49.1011 42.5832V41.3428H48.2856V42.5832V43.8235H49.1011V42.5832ZM48.2856 42.5832H49.526V37.7461H48.2856H47.0453V42.5832H48.2856Z" fill="#0C1436" mask="url(#path-13-inside-4_553_2894)"/>
<mask id="path-15-inside-5_553_2894" fill="white">
<path d="M56.1919 37.7461H57.0142V42.5832H56.1919V37.7461Z"/>
</mask>
<path d="M56.1919 37.7461H57.0142V42.5832H56.1919V37.7461Z" fill="#0C1436"/>
<path d="M56.1919 37.7461V36.5058H54.9516V37.7461H56.1919ZM57.0142 37.7461H58.2545V36.5058H57.0142V37.7461ZM57.0142 42.5832V43.8235H58.2545V42.5832H57.0142ZM56.1919 42.5832H54.9516V43.8235H56.1919V42.5832ZM56.1919 37.7461V38.9864H57.0142V37.7461V36.5058H56.1919V37.7461ZM57.0142 37.7461H55.7739V42.5832H57.0142H58.2545V37.7461H57.0142ZM57.0142 42.5832V41.3428H56.1919V42.5832V43.8235H57.0142V42.5832ZM56.1919 42.5832H57.4322V37.7461H56.1919H54.9516V42.5832H56.1919Z" fill="#0C1436" mask="url(#path-15-inside-5_553_2894)"/>
<mask id="path-17-inside-6_553_2894" fill="white">
<path d="M61.4502 40.1656C61.4502 40.4973 61.5193 40.7944 61.6575 41.057C61.8003 41.3149 61.9961 41.5176 62.2449 41.665C62.4936 41.8125 62.777 41.8862 63.0948 41.8862C63.4173 41.8862 63.7006 41.8125 63.9447 41.665C64.1936 41.5176 64.387 41.3149 64.5252 41.057C64.668 40.7944 64.7395 40.4973 64.7395 40.1656C64.7395 39.8339 64.6703 39.539 64.5321 39.2811C64.3939 39.0185 64.2004 38.8135 63.9517 38.6661C63.7075 38.5187 63.4219 38.4449 63.0948 38.4449C62.777 38.4449 62.4936 38.5187 62.2449 38.6661C61.9961 38.8135 61.8003 39.0185 61.6575 39.2811C61.5193 39.539 61.4502 39.8339 61.4502 40.1656ZM60.5864 40.1656C60.5864 39.8016 60.6487 39.4676 60.773 39.1636C60.8974 38.8596 61.0725 38.597 61.2982 38.3758C61.5285 38.1501 61.7957 37.975 62.0997 37.8506C62.4084 37.7263 62.7401 37.6641 63.0948 37.6641C63.4587 37.6641 63.7928 37.7263 64.0968 37.8506C64.4008 37.975 64.6657 38.1501 64.8914 38.3758C65.1218 38.597 65.2992 38.8596 65.4236 39.1636C65.5479 39.4676 65.6101 39.8016 65.6101 40.1656C65.6101 40.5249 65.5479 40.8589 65.4236 41.1675C65.2992 41.4762 65.1241 41.7434 64.8984 41.9691C64.6727 42.1949 64.4054 42.3722 64.0968 42.5012C63.7928 42.6256 63.4587 42.6878 63.0948 42.6878C62.7355 42.6878 62.4015 42.6256 62.0928 42.5012C61.7842 42.3722 61.517 42.1949 61.2912 41.9691C61.0702 41.7434 60.8974 41.4762 60.773 41.1675C60.6487 40.8589 60.5864 40.5249 60.5864 40.1656Z"/>
</mask>
<path d="M61.4502 40.1656C61.4502 40.4973 61.5193 40.7944 61.6575 41.057C61.8003 41.3149 61.9961 41.5176 62.2449 41.665C62.4936 41.8125 62.777 41.8862 63.0948 41.8862C63.4173 41.8862 63.7006 41.8125 63.9447 41.665C64.1936 41.5176 64.387 41.3149 64.5252 41.057C64.668 40.7944 64.7395 40.4973 64.7395 40.1656C64.7395 39.8339 64.6703 39.539 64.5321 39.2811C64.3939 39.0185 64.2004 38.8135 63.9517 38.6661C63.7075 38.5187 63.4219 38.4449 63.0948 38.4449C62.777 38.4449 62.4936 38.5187 62.2449 38.6661C61.9961 38.8135 61.8003 39.0185 61.6575 39.2811C61.5193 39.539 61.4502 39.8339 61.4502 40.1656ZM60.5864 40.1656C60.5864 39.8016 60.6487 39.4676 60.773 39.1636C60.8974 38.8596 61.0725 38.597 61.2982 38.3758C61.5285 38.1501 61.7957 37.975 62.0997 37.8506C62.4084 37.7263 62.7401 37.6641 63.0948 37.6641C63.4587 37.6641 63.7928 37.7263 64.0968 37.8506C64.4008 37.975 64.6657 38.1501 64.8914 38.3758C65.1218 38.597 65.2992 38.8596 65.4236 39.1636C65.5479 39.4676 65.6101 39.8016 65.6101 40.1656C65.6101 40.5249 65.5479 40.8589 65.4236 41.1675C65.2992 41.4762 65.1241 41.7434 64.8984 41.9691C64.6727 42.1949 64.4054 42.3722 64.0968 42.5012C63.7928 42.6256 63.4587 42.6878 63.0948 42.6878C62.7355 42.6878 62.4015 42.6256 62.0928 42.5012C61.7842 42.3722 61.517 42.1949 61.2912 41.9691C61.0702 41.7434 60.8974 41.4762 60.773 41.1675C60.6487 40.8589 60.5864 40.5249 60.5864 40.1656Z" fill="#0C1436"/>
<path d="M61.6575 41.057L60.5599 41.6346L60.566 41.6461L60.5723 41.6576L61.6575 41.057ZM63.9447 41.665L63.3125 40.5979L63.3037 40.6032L63.9447 41.665ZM64.5252 41.057L63.4355 40.4646L63.4321 40.471L64.5252 41.057ZM64.5321 39.2811L63.4345 39.8587L63.4388 39.8668L64.5321 39.2811ZM63.9517 38.6661L63.3106 39.7279L63.3193 39.7331L63.9517 38.6661ZM61.6575 39.2811L60.5678 38.6887L60.5642 38.6953L61.6575 39.2811ZM60.773 39.1636L59.6251 38.6939L59.6249 38.6942L60.773 39.1636ZM61.2982 38.3758L62.1662 39.2618L62.1662 39.2617L61.2982 38.3758ZM62.0997 37.8506L61.6364 36.7001L61.63 36.7027L62.0997 37.8506ZM64.0968 37.8506L64.5665 36.7027L64.5662 36.7026L64.0968 37.8506ZM64.8914 38.3758L64.0144 39.2528L64.0234 39.2618L64.0325 39.2706L64.8914 38.3758ZM65.4236 39.1636L66.5716 38.6942L66.5715 38.6939L65.4236 39.1636ZM65.4236 41.1675L66.574 41.6311L66.574 41.631L65.4236 41.1675ZM64.8984 41.9691L64.0213 41.0921L64.0212 41.0922L64.8984 41.9691ZM64.0968 42.5012L64.5665 43.6492L64.5751 43.6456L64.0968 42.5012ZM62.0928 42.5012L61.6145 43.6456L61.6218 43.6486L61.6292 43.6516L62.0928 42.5012ZM61.2912 41.9691L60.4051 42.837L60.414 42.8459L61.2912 41.9691ZM60.773 41.1675L59.6225 41.631L59.6226 41.6311L60.773 41.1675ZM61.4502 40.1656H60.2099C60.2099 40.6745 60.3174 41.1738 60.5599 41.6346L61.6575 41.057L62.7551 40.4794C62.7212 40.415 62.6905 40.32 62.6905 40.1656H61.4502ZM61.6575 41.057L60.5723 41.6576C60.8198 42.1047 61.1703 42.47 61.6125 42.732L62.2449 41.665L62.8772 40.598C62.8219 40.5653 62.7808 40.5252 62.7427 40.4564L61.6575 41.057ZM62.2449 41.665L61.6125 42.732C62.0713 43.0039 62.5772 43.1265 63.0948 43.1265V41.8862V40.6459C62.9768 40.6459 62.9159 40.621 62.8772 40.598L62.2449 41.665ZM63.0948 41.8862V43.1265C63.6132 43.1265 64.124 43.0057 64.5858 42.7268L63.9447 41.665L63.3037 40.6032C63.2772 40.6192 63.2214 40.6459 63.0948 40.6459V41.8862ZM63.9447 41.665L64.577 42.7321C65.0232 42.4678 65.3748 42.0975 65.6184 41.643L64.5252 41.057L63.4321 40.471C63.3992 40.5324 63.3639 40.5675 63.3125 40.598L63.9447 41.665ZM64.5252 41.057L65.6149 41.6494C65.8669 41.1859 65.9798 40.6814 65.9798 40.1656H64.7395H63.4992C63.4992 40.3132 63.4691 40.4029 63.4356 40.4646L64.5252 41.057ZM64.7395 40.1656H65.9798C65.9798 39.657 65.8723 39.1561 65.6254 38.6953L64.5321 39.2811L63.4388 39.8668C63.4683 39.9219 63.4992 40.0109 63.4992 40.1656H64.7395ZM64.5321 39.2811L65.6297 38.7035C65.3876 38.2434 65.0354 37.8666 64.584 37.5991L63.9517 38.6661L63.3193 39.7331C63.3654 39.7604 63.4002 39.7936 63.4345 39.8587L64.5321 39.2811ZM63.9517 38.6661L64.5927 37.6043C64.1282 37.3238 63.6142 37.2046 63.0948 37.2046V38.4449V39.6852C63.2297 39.6852 63.2868 39.7135 63.3106 39.7279L63.9517 38.6661ZM63.0948 38.4449V37.2046C62.5772 37.2046 62.0713 37.3272 61.6125 37.5991L62.2449 38.6661L62.8772 39.7331C62.9159 39.7102 62.9768 39.6852 63.0948 39.6852V38.4449ZM62.2449 38.6661L61.6125 37.5991C61.1649 37.8644 60.8138 38.2362 60.5678 38.6887L61.6575 39.2811L62.7472 39.8735C62.7868 39.8007 62.8274 39.7626 62.8772 39.7331L62.2449 38.6661ZM61.6575 39.2811L60.5642 38.6953C60.3172 39.1563 60.2099 39.6572 60.2099 40.1656H61.4502H62.6905C62.6905 40.0106 62.7214 39.9217 62.7508 39.8668L61.6575 39.2811ZM60.5864 40.1656H61.8267C61.8267 39.9454 61.8638 39.7729 61.921 39.633L60.773 39.1636L59.6249 38.6942C59.4335 39.1623 59.3461 39.6578 59.3461 40.1656H60.5864ZM60.773 39.1636L61.9209 39.6333C61.9839 39.4793 62.0659 39.36 62.1662 39.2618L61.2982 38.3758L60.4302 37.4899C60.079 37.8339 59.8109 38.2398 59.6251 38.6939L60.773 39.1636ZM61.2982 38.3758L62.1662 39.2617C62.2799 39.1504 62.4111 39.0633 62.5695 38.9986L62.0997 37.8506L61.63 36.7027C61.1803 36.8867 60.7772 37.1498 60.4301 37.4899L61.2982 38.3758ZM62.0997 37.8506L62.5631 39.0011C62.7152 38.9399 62.8885 38.9044 63.0948 38.9044V37.6641V36.4238C62.5917 36.4238 62.1017 36.5127 61.6364 36.7001L62.0997 37.8506ZM63.0948 37.6641V38.9044C63.3149 38.9044 63.4875 38.9415 63.6274 38.9987L64.0968 37.8506L64.5662 36.7026C64.0981 36.5111 63.6025 36.4238 63.0948 36.4238V37.6641ZM64.0968 37.8506L63.6271 38.9986C63.7833 39.0625 63.9085 39.147 64.0144 39.2528L64.8914 38.3758L65.7685 37.4988C65.4229 37.1532 65.0184 36.8876 64.5665 36.7027L64.0968 37.8506ZM64.8914 38.3758L64.0325 39.2706C64.1342 39.3682 64.2149 39.4848 64.2756 39.6333L65.4236 39.1636L66.5715 38.6939C66.3835 38.2344 66.1094 37.8257 65.7504 37.4811L64.8914 38.3758ZM65.4236 39.1636L64.2755 39.633C64.3327 39.7729 64.3698 39.9454 64.3698 40.1656H65.6101H66.8504C66.8504 39.6578 66.763 39.1623 66.5716 38.6942L65.4236 39.1636ZM65.6101 40.1656H64.3698C64.3698 40.3787 64.3335 40.554 64.2731 40.7041L65.4236 41.1675L66.574 41.631C66.7622 41.1638 66.8504 40.671 66.8504 40.1656H65.6101ZM65.4236 41.1675L64.2732 40.7039C64.2085 40.8644 64.1241 40.9893 64.0213 41.0921L64.8984 41.9691L65.7754 42.8461C66.1241 42.4974 66.3899 42.088 66.574 41.6311L65.4236 41.1675ZM64.8984 41.9691L64.0212 41.0922C63.9153 41.1982 63.7854 41.2871 63.6185 41.3568L64.0968 42.5012L64.5751 43.6456C65.0254 43.4574 65.43 43.1916 65.7756 42.8459L64.8984 41.9691ZM64.0968 42.5012L63.6271 41.3533C63.4876 41.4104 63.3152 41.4475 63.0948 41.4475V42.6878V43.9281C63.6023 43.9281 64.098 43.8408 64.5665 43.6491L64.0968 42.5012ZM63.0948 42.6878V41.4475C62.8815 41.4475 62.7063 41.4112 62.5564 41.3508L62.0928 42.5012L61.6292 43.6516C62.0967 43.84 62.5894 43.9281 63.0948 43.9281V42.6878ZM62.0928 42.5012L62.5711 41.3568C62.4042 41.2871 62.2743 41.1982 62.1684 41.0922L61.2912 41.9691L60.414 42.8459C60.7596 43.1916 61.1642 43.4574 61.6145 43.6456L62.0928 42.5012ZM61.2912 41.9691L62.1774 41.1012C62.0759 40.9977 61.9903 40.8698 61.9234 40.7039L60.773 41.1675L59.6226 41.6311C59.8045 42.0826 60.0644 42.4891 60.4051 42.8369L61.2912 41.9691ZM60.773 41.1675L61.9235 40.7041C61.863 40.554 61.8267 40.3787 61.8267 40.1656H60.5864H59.3461C59.3461 40.671 59.4343 41.1638 59.6225 41.631L60.773 41.1675Z" fill="#0C1436" mask="url(#path-17-inside-6_553_2894)"/>
<mask id="path-19-inside-7_553_2894" fill="white">
<path d="M72.6956 37.7497H73.4971V42.8286L69.9661 39.339V42.5867H69.1646V37.5078L72.6956 40.9975V37.7497Z"/>
</mask>
<path d="M72.6956 37.7497H73.4971V42.8286L69.9661 39.339V42.5867H69.1646V37.5078L72.6956 40.9975V37.7497Z" fill="#0C1436"/>
<path d="M72.6956 37.7497V36.5094H71.4553V37.7497H72.6956ZM73.4971 37.7497H74.7375V36.5094H73.4971V37.7497ZM73.4971 42.8286L72.6253 43.7108L74.7375 45.7982V42.8286H73.4971ZM69.9661 39.339L70.838 38.4568L68.7258 36.3695V39.339H69.9661ZM69.9661 42.5867V43.8271H71.2064V42.5867H69.9661ZM69.1646 42.5867H67.9242V43.8271H69.1646V42.5867ZM69.1646 37.5078L70.0364 36.6256L67.9242 34.5382V37.5078H69.1646ZM72.6956 40.9975L71.8237 41.8797L73.9359 43.9671V40.9975H72.6956ZM72.6956 37.7497V38.99H73.4971V37.7497V36.5094H72.6956V37.7497ZM73.4971 37.7497H72.2568V42.8286H73.4971H74.7375V37.7497H73.4971ZM73.4971 42.8286L74.369 41.9464L70.838 38.4568L69.9661 39.339L69.0943 40.2212L72.6253 43.7108L73.4971 42.8286ZM69.9661 39.339H68.7258V42.5867H69.9661H71.2064V39.339H69.9661ZM69.9661 42.5867V41.3464H69.1646V42.5867V43.8271H69.9661V42.5867ZM69.1646 42.5867H70.4049V37.5078H69.1646H67.9242V42.5867H69.1646ZM69.1646 37.5078L68.2927 38.39L71.8237 41.8797L72.6956 40.9975L73.5674 40.1153L70.0364 36.6256L69.1646 37.5078ZM72.6956 40.9975H73.9359V37.7497H72.6956H71.4553V40.9975H72.6956Z" fill="#0C1436" mask="url(#path-19-inside-7_553_2894)"/>
<mask id="path-21-inside-8_553_2894" fill="white">
<path d="M82.4972 40.365V39.6118H85.9455V40.365H82.4972ZM85.4203 37.7461H86.2356V42.5832H85.4203V37.7461ZM82.1724 37.7461H82.9878V42.5832H82.1724V37.7461Z"/>
</mask>
<path d="M82.4972 40.365V39.6118H85.9455V40.365H82.4972ZM85.4203 37.7461H86.2356V42.5832H85.4203V37.7461ZM82.1724 37.7461H82.9878V42.5832H82.1724V37.7461Z" fill="#0C1436"/>
<path d="M82.4972 40.365H81.2569V41.6053H82.4972V40.365ZM82.4972 39.6118V38.3715H81.2569V39.6118H82.4972ZM85.9455 39.6118H87.1858V38.3715H85.9455V39.6118ZM85.9455 40.365V41.6053H87.1858V40.365H85.9455ZM85.4203 37.7461V36.5058H84.18V37.7461H85.4203ZM86.2356 37.7461H87.4759V36.5058H86.2356V37.7461ZM86.2356 42.5832V43.8235H87.4759V42.5832H86.2356ZM85.4203 42.5832H84.18V43.8235H85.4203V42.5832ZM82.1724 37.7461V36.5058H80.9321V37.7461H82.1724ZM82.9878 37.7461H84.2281V36.5058H82.9878V37.7461ZM82.9878 42.5832V43.8235H84.2281V42.5832H82.9878ZM82.1724 42.5832H80.9321V43.8235H82.1724V42.5832ZM82.4972 40.365H83.7375V39.6118H82.4972H81.2569V40.365H82.4972ZM82.4972 39.6118V40.8521H85.9455V39.6118V38.3715H82.4972V39.6118ZM85.9455 39.6118H84.7052V40.365H85.9455H87.1858V39.6118H85.9455ZM85.9455 40.365V39.1247H82.4972V40.365V41.6053H85.9455V40.365ZM85.4203 37.7461V38.9864H86.2356V37.7461V36.5058H85.4203V37.7461ZM86.2356 37.7461H84.9953V42.5832H86.2356H87.4759V37.7461H86.2356ZM86.2356 42.5832V41.3428H85.4203V42.5832V43.8235H86.2356V42.5832ZM85.4203 42.5832H86.6606V37.7461H85.4203H84.18V42.5832H85.4203ZM82.1724 37.7461V38.9864H82.9878V37.7461V36.5058H82.1724V37.7461ZM82.9878 37.7461H81.7475V42.5832H82.9878H84.2281V37.7461H82.9878ZM82.9878 42.5832V41.3428H82.1724V42.5832V43.8235H82.9878V42.5832ZM82.1724 42.5832H83.4127V37.7461H82.1724H80.9321V42.5832H82.1724Z" fill="#0C1436" mask="url(#path-21-inside-8_553_2894)"/>
<mask id="path-23-inside-9_553_2894" fill="white">
<path d="M90.0435 37.7461H90.8587V40.9593C90.8587 41.2588 90.9374 41.5006 91.0938 41.6848C91.2554 41.8646 91.4922 41.9544 91.8059 41.9544C92.1146 41.9544 92.3497 41.8646 92.5104 41.6848C92.6719 41.5006 92.7523 41.2588 92.7523 40.9593V37.7461H93.5675V40.9939C93.5675 41.261 93.5244 41.5006 93.4365 41.7125C93.3536 41.9198 93.2335 42.0972 93.077 42.2446C92.9206 42.392 92.7337 42.5048 92.5172 42.5832C92.3007 42.6615 92.0639 42.7006 91.8059 42.7006C91.548 42.7006 91.3103 42.6615 91.0938 42.5832C90.8773 42.5048 90.6887 42.392 90.5272 42.2446C90.3707 42.0972 90.2507 41.9198 90.1678 41.7125C90.0849 41.5006 90.0435 41.261 90.0435 40.9939V37.7461Z"/>
</mask>
<path d="M90.0435 37.7461H90.8587V40.9593C90.8587 41.2588 90.9374 41.5006 91.0938 41.6848C91.2554 41.8646 91.4922 41.9544 91.8059 41.9544C92.1146 41.9544 92.3497 41.8646 92.5104 41.6848C92.6719 41.5006 92.7523 41.2588 92.7523 40.9593V37.7461H93.5675V40.9939C93.5675 41.261 93.5244 41.5006 93.4365 41.7125C93.3536 41.9198 93.2335 42.0972 93.077 42.2446C92.9206 42.392 92.7337 42.5048 92.5172 42.5832C92.3007 42.6615 92.0639 42.7006 91.8059 42.7006C91.548 42.7006 91.3103 42.6615 91.0938 42.5832C90.8773 42.5048 90.6887 42.392 90.5272 42.2446C90.3707 42.0972 90.2507 41.9198 90.1678 41.7125C90.0849 41.5006 90.0435 41.261 90.0435 40.9939V37.7461Z" fill="#0C1436"/>
<path d="M90.0435 37.7461V36.5058H88.8031V37.7461H90.0435ZM90.8587 37.7461H92.099V36.5058H90.8587V37.7461ZM91.0938 41.6848L90.1483 42.4876L90.1597 42.5009L90.1714 42.514L91.0938 41.6848ZM92.5104 41.6848L93.4351 42.5116L93.4431 42.5024L92.5104 41.6848ZM92.7523 37.7461V36.5058H91.512V37.7461H92.7523ZM93.5675 37.7461H94.8079V36.5058H93.5675V37.7461ZM93.4365 41.7125L92.2909 41.2371L92.2878 41.2445L92.2848 41.252L93.4365 41.7125ZM90.5272 42.2446L89.6767 43.1474L89.6839 43.1541L89.6911 43.1608L90.5272 42.2446ZM90.1678 41.7125L89.0126 42.1642L89.0161 42.173L90.1678 41.7125ZM90.0435 37.7461V38.9864H90.8587V37.7461V36.5058H90.0435V37.7461ZM90.8587 37.7461H89.6184V40.9593H90.8587H92.099V37.7461H90.8587ZM90.8587 40.9593H89.6184C89.6184 41.4818 89.7602 42.0304 90.1483 42.4876L91.0938 41.6848L92.0393 40.8821C92.054 40.8994 92.0668 40.9181 92.0772 40.9368C92.0875 40.9555 92.0938 40.9714 92.0974 40.9826C92.1046 41.0047 92.099 41.0012 92.099 40.9593H90.8587ZM91.0938 41.6848L90.1714 42.514C90.633 43.0276 91.2506 43.1947 91.8059 43.1947V41.9544V40.7141C91.7649 40.7141 91.7815 40.7079 91.832 40.7271C91.8895 40.7488 91.9583 40.7912 92.0163 40.8557L91.0938 41.6848ZM91.8059 41.9544V43.1947C92.3612 43.1947 92.9764 43.0245 93.435 42.5116L92.5104 41.6848L91.5858 40.8581C91.6431 40.794 91.7119 40.751 91.7706 40.7285C91.8228 40.7086 91.8422 40.7141 91.8059 40.7141V41.9544ZM92.5104 41.6848L93.4431 42.5024C93.8453 42.0436 93.9926 41.4884 93.9926 40.9593H92.7523H91.512C91.512 40.9989 91.5066 40.9989 91.5152 40.9733C91.5195 40.9604 91.5266 40.9431 91.5378 40.9233C91.5491 40.9035 91.5626 40.8845 91.5777 40.8673L92.5104 41.6848ZM92.7523 40.9593H93.9926V37.7461H92.7523H91.512V40.9593H92.7523ZM92.7523 37.7461V38.9864H93.5675V37.7461V36.5058H92.7523V37.7461ZM93.5675 37.7461H92.3272V40.9939H93.5675H94.8079V37.7461H93.5675ZM93.5675 40.9939H92.3272C92.3272 41.1274 92.3059 41.2009 92.2909 41.2371L93.4365 41.7125L94.582 42.1879C94.7429 41.8002 94.8079 41.3947 94.8079 40.9939H93.5675ZM93.4365 41.7125L92.2848 41.252C92.2667 41.2972 92.2474 41.3222 92.2265 41.3419L93.077 42.2446L93.9276 43.1474C94.2196 42.8722 94.4404 42.5423 94.5881 42.173L93.4365 41.7125ZM93.077 42.2446L92.2265 41.3419C92.2027 41.3643 92.1648 41.3916 92.0953 41.4168L92.5172 42.5832L92.9391 43.7495C93.3025 43.618 93.6385 43.4198 93.9276 43.1474L93.077 42.2446ZM92.5172 42.5832L92.0953 41.4168C92.0291 41.4407 91.9369 41.4603 91.8059 41.4603V42.7006V43.9409C92.1908 43.9409 92.5722 43.8822 92.9391 43.7495L92.5172 42.5832ZM91.8059 42.7006V41.4603C91.6744 41.4603 91.5815 41.4406 91.5157 41.4168L91.0938 42.5832L90.6719 43.7495C91.0392 43.8823 91.4216 43.9409 91.8059 43.9409V42.7006ZM91.0938 42.5832L91.5157 41.4168C91.4448 41.3912 91.3987 41.3608 91.3633 41.3284L90.5272 42.2446L89.6911 43.1608C89.9788 43.4233 90.3098 43.6185 90.6719 43.7495L91.0938 42.5832ZM90.5272 42.2446L91.3777 41.3419C91.3569 41.3222 91.3375 41.2972 91.3194 41.252L90.1678 41.7125L89.0161 42.173C89.1638 42.5423 89.3846 42.8722 89.6767 43.1474L90.5272 42.2446ZM90.1678 41.7125L91.3229 41.2608C91.3052 41.2155 91.2838 41.1329 91.2838 40.9939H90.0435H88.8031C88.8031 41.3892 88.8646 41.7856 89.0126 42.1642L90.1678 41.7125ZM90.0435 40.9939H91.2838V37.7461H90.0435H88.8031V40.9939H90.0435Z" fill="#0C1436" mask="url(#path-23-inside-9_553_2894)"/>
<mask id="path-25-inside-10_553_2894" fill="white">
<path d="M98.0057 40.0886V39.6879H98.7863C98.9386 39.6879 99.0722 39.6625 99.1872 39.6118C99.3022 39.5612 99.3919 39.4897 99.457 39.3976C99.5213 39.3009 99.5534 39.1857 99.5534 39.0521C99.5534 38.8494 99.4824 38.6928 99.3394 38.5823C99.1965 38.4716 99.0121 38.4164 98.7863 38.4164H98.1994V41.9129H98.876C99.0603 41.9129 99.2244 41.883 99.3665 41.8231C99.5094 41.7631 99.6228 41.6733 99.7056 41.5536C99.7885 41.4338 99.8299 41.2841 99.8299 41.1044C99.8299 40.9755 99.8046 40.8625 99.7538 40.7658C99.7082 40.6645 99.6414 40.5815 99.5534 40.5171C99.4705 40.448 99.3716 40.3996 99.2566 40.3719C99.1415 40.3397 99.0147 40.3236 98.876 40.3236H98.0057V39.8744H98.925C99.1593 39.8744 99.3809 39.8997 99.5881 39.9504C99.7953 40.0011 99.9796 40.0794 100.141 40.1854C100.307 40.2914 100.435 40.4273 100.528 40.5931C100.62 40.7589 100.666 40.957 100.666 41.1873C100.666 41.5052 100.59 41.7678 100.438 41.9751C100.291 42.1824 100.085 42.3367 99.8232 42.4381C99.5652 42.5348 99.2659 42.5832 98.925 42.5832H97.3833V37.7461H98.8413C99.1458 37.7461 99.413 37.7898 99.643 37.8773C99.8782 37.9649 100.06 38.0985 100.189 38.2781C100.323 38.4578 100.39 38.6859 100.39 38.9622C100.39 39.2018 100.323 39.4068 100.189 39.5772C100.06 39.7431 99.8782 39.8698 99.643 39.9573C99.413 40.0448 99.1458 40.0886 98.8413 40.0886H98.0057Z"/>
</mask>
<path d="M98.0057 40.0886V39.6879H98.7863C98.9386 39.6879 99.0722 39.6625 99.1872 39.6118C99.3022 39.5612 99.3919 39.4897 99.457 39.3976C99.5213 39.3009 99.5534 39.1857 99.5534 39.0521C99.5534 38.8494 99.4824 38.6928 99.3394 38.5823C99.1965 38.4716 99.0121 38.4164 98.7863 38.4164H98.1994V41.9129H98.876C99.0603 41.9129 99.2244 41.883 99.3665 41.8231C99.5094 41.7631 99.6228 41.6733 99.7056 41.5536C99.7885 41.4338 99.8299 41.2841 99.8299 41.1044C99.8299 40.9755 99.8046 40.8625 99.7538 40.7658C99.7082 40.6645 99.6414 40.5815 99.5534 40.5171C99.4705 40.448 99.3716 40.3996 99.2566 40.3719C99.1415 40.3397 99.0147 40.3236 98.876 40.3236H98.0057V39.8744H98.925C99.1593 39.8744 99.3809 39.8997 99.5881 39.9504C99.7953 40.0011 99.9796 40.0794 100.141 40.1854C100.307 40.2914 100.435 40.4273 100.528 40.5931C100.62 40.7589 100.666 40.957 100.666 41.1873C100.666 41.5052 100.59 41.7678 100.438 41.9751C100.291 42.1824 100.085 42.3367 99.8232 42.4381C99.5652 42.5348 99.2659 42.5832 98.925 42.5832H97.3833V37.7461H98.8413C99.1458 37.7461 99.413 37.7898 99.643 37.8773C99.8782 37.9649 100.06 38.0985 100.189 38.2781C100.323 38.4578 100.39 38.6859 100.39 38.9622C100.39 39.2018 100.323 39.4068 100.189 39.5772C100.06 39.7431 99.8782 39.8698 99.643 39.9573C99.413 40.0448 99.1458 40.0886 98.8413 40.0886H98.0057Z" fill="#0C1436"/>
<path d="M98.0057 40.0886H96.7654V41.3289H98.0057V40.0886ZM98.0057 39.6879V38.4475H96.7654V39.6879H98.0057ZM99.457 39.3976L100.47 40.1137L100.48 40.099L100.49 40.0839L99.457 39.3976ZM99.3394 38.5823L98.5803 39.5631L98.5807 39.5634L99.3394 38.5823ZM98.1994 38.4164V37.1761H96.9591V38.4164H98.1994ZM98.1994 41.9129H96.9591V43.1532H98.1994V41.9129ZM99.3665 41.8231L98.8867 40.6794L98.8848 40.6801L99.3665 41.8231ZM99.7538 40.7658L98.6231 41.2755L98.6383 41.3092L98.6554 41.3419L99.7538 40.7658ZM99.5534 40.5171L98.7592 41.4697L98.789 41.4946L98.8203 41.5176L99.5534 40.5171ZM99.2566 40.3719L98.922 41.5663L98.9442 41.5725L98.9666 41.5779L99.2566 40.3719ZM98.0057 40.3236H96.7654V41.5639H98.0057V40.3236ZM98.0057 39.8744V38.6341H96.7654V39.8744H98.0057ZM99.5881 39.9504L99.293 41.1552L99.2935 41.1553L99.5881 39.9504ZM100.141 40.1854L99.4608 41.2225L99.4669 41.2265L99.4731 41.2304L100.141 40.1854ZM100.438 41.9751L99.4383 41.2409L99.4324 41.249L99.4266 41.2571L100.438 41.9751ZM99.8232 42.4381L100.258 43.5996L100.271 43.5949L99.8232 42.4381ZM97.3833 42.5832H96.143V43.8235H97.3833V42.5832ZM97.3833 37.7461V36.5058H96.143V37.7461H97.3833ZM99.643 37.8773L99.2019 39.0366L99.2103 39.0397L99.643 37.8773ZM100.189 38.2781L99.183 39.0031L99.1885 39.0107L99.194 39.0182L100.189 38.2781ZM100.189 39.5772L99.2133 38.8119L99.2115 38.8143L100.189 39.5772ZM99.643 39.9573L99.2103 38.7949L99.2019 38.7981L99.643 39.9573ZM98.0057 40.0886H99.2461V39.6879H98.0057H96.7654V40.0886H98.0057ZM98.0057 39.6879V40.9282H98.7863V39.6879V38.4475H98.0057V39.6879ZM98.7863 39.6879V40.9282C99.0754 40.9282 99.3852 40.8799 99.6872 40.7469L99.1872 39.6118L98.6873 38.4767C98.7592 38.4451 98.8017 38.4475 98.7863 38.4475V39.6879ZM99.1872 39.6118L99.6872 40.7469C99.9861 40.6152 100.262 40.4078 100.47 40.1137L99.457 39.3976L98.4443 38.6815C98.522 38.5716 98.6183 38.5071 98.6873 38.4767L99.1872 39.6118ZM99.457 39.3976L100.49 40.0839C100.709 39.7545 100.794 39.3922 100.794 39.0521H99.5534H98.3131C98.3131 38.9791 98.3336 38.8472 98.4239 38.7113L99.457 39.3976ZM99.5534 39.0521H100.794C100.794 38.5211 100.586 37.9786 100.098 37.6011L99.3394 38.5823L98.5807 39.5634C98.5004 39.5013 98.423 39.4104 98.371 39.2962C98.3212 39.1867 98.3131 39.0962 98.3131 39.0521H99.5534ZM99.3394 38.5823L100.099 37.6014C99.6886 37.2841 99.2167 37.1761 98.7863 37.1761V38.4164V39.6567C98.799 39.6567 98.7792 39.6583 98.7378 39.6459C98.6937 39.6327 98.637 39.607 98.5803 39.5631L99.3394 38.5823ZM98.7863 38.4164V37.1761H98.1994V38.4164V39.6567H98.7863V38.4164ZM98.1994 38.4164H96.9591V41.9129H98.1994H99.4397V38.4164H98.1994ZM98.1994 41.9129V43.1532H98.876V41.9129V40.6726H98.1994V41.9129ZM98.876 41.9129V43.1532C99.1932 43.1532 99.5262 43.1017 99.8482 42.9661L99.3665 41.8231L98.8848 40.6801C98.9226 40.6642 98.9275 40.6726 98.876 40.6726V41.9129ZM99.3665 41.8231L99.8463 42.9668C100.191 42.8223 100.498 42.5877 100.726 42.2594L99.7056 41.5536L98.6858 40.8477C98.7134 40.8078 98.7479 40.7707 98.7872 40.7395C98.826 40.7087 98.8615 40.6899 98.8867 40.6794L99.3665 41.8231ZM99.7056 41.5536L100.726 42.2594C100.982 41.8881 101.07 41.4766 101.07 41.1044H99.8299H98.5896C98.5896 41.0915 98.5945 40.9795 98.6858 40.8477L99.7056 41.5536ZM99.8299 41.1044H101.07C101.07 40.811 101.012 40.4937 100.852 40.1897L99.7538 40.7658L98.6554 41.3419C98.5975 41.2314 98.5896 41.1399 98.5896 41.1044H99.8299ZM99.7538 40.7658L100.885 40.2561C100.753 39.9639 100.551 39.7103 100.286 39.5166L99.5534 40.5171L98.8203 41.5176C98.7318 41.4527 98.6634 41.365 98.6231 41.2755L99.7538 40.7658ZM99.5534 40.5171L100.348 39.5644C100.105 39.3619 99.8287 39.2339 99.5465 39.166L99.2566 40.3719L98.9666 41.5779C98.9144 41.5653 98.8364 41.5341 98.7592 41.4697L99.5534 40.5171ZM99.2566 40.3719L99.5911 39.1776C99.3516 39.1105 99.1103 39.0833 98.876 39.0833V40.3236V41.5639C98.919 41.5639 98.9315 41.5689 98.922 41.5663L99.2566 40.3719ZM98.876 40.3236V39.0833H98.0057V40.3236V41.5639H98.876V40.3236ZM98.0057 40.3236H99.2461V39.8744H98.0057H96.7654V40.3236H98.0057ZM98.0057 39.8744V41.1147H98.925V39.8744V38.6341H98.0057V39.8744ZM98.925 39.8744V41.1147C99.0702 41.1147 99.192 41.1304 99.293 41.1552L99.5881 39.9504L99.8831 38.7457C99.5698 38.669 99.2484 38.6341 98.925 38.6341V39.8744ZM99.5881 39.9504L99.2935 41.1553C99.3777 41.1759 99.4291 41.2016 99.4608 41.2225L100.141 40.1854L100.822 39.1483C100.53 38.9572 100.213 38.8263 99.8826 38.7456L99.5881 39.9504ZM100.141 40.1854L99.4731 41.2304C99.4751 41.2317 99.4698 41.2285 99.4616 41.2198C99.4533 41.211 99.4471 41.202 99.4436 41.1957L100.528 40.5931L101.612 39.9905C101.417 39.6395 101.143 39.3536 100.809 39.1404L100.141 40.1854ZM100.528 40.5931L99.4436 41.1957C99.4371 41.184 99.4324 41.1736 99.4291 41.1649C99.4259 41.1564 99.4244 41.1506 99.4238 41.1484C99.4228 41.144 99.426 41.1554 99.426 41.1873H100.666H101.907C101.907 40.7891 101.825 40.3749 101.612 39.9905L100.528 40.5931ZM100.666 41.1873H99.426C99.426 41.2479 99.4187 41.2748 99.418 41.2774C99.4177 41.2785 99.4187 41.2746 99.4224 41.2671C99.426 41.2595 99.4313 41.2504 99.4383 41.2409L100.438 41.9751L101.438 42.7092C101.78 42.2431 101.907 41.7059 101.907 41.1873H100.666ZM100.438 41.9751L99.4266 41.2571C99.428 41.2552 99.4298 41.2539 99.4279 41.2553C99.4252 41.2573 99.4106 41.2678 99.3758 41.2813L99.8232 42.4381L100.271 43.5949C100.733 43.416 101.146 43.1208 101.449 42.6931L100.438 41.9751ZM99.8232 42.4381L99.3879 41.2767C99.2977 41.3105 99.1511 41.3428 98.925 41.3428V42.5832V43.8235C99.3806 43.8235 99.8328 43.7591 100.258 43.5995L99.8232 42.4381ZM98.925 42.5832V41.3428H97.3833V42.5832V43.8235H98.925V42.5832ZM97.3833 42.5832H98.6236V37.7461H97.3833H96.143V42.5832H97.3833ZM97.3833 37.7461V38.9864H98.8413V37.7461V36.5058H97.3833V37.7461ZM98.8413 37.7461V38.9864C99.0296 38.9864 99.1419 39.0137 99.2019 39.0366L99.643 37.8773L100.084 36.7181C99.6841 36.5659 99.2619 36.5058 98.8413 36.5058V37.7461ZM99.643 37.8773L99.2103 39.0397C99.232 39.0478 99.2328 39.051 99.222 39.0431C99.2168 39.0393 99.2101 39.0338 99.2028 39.0264C99.1954 39.019 99.1887 39.011 99.183 39.0031L100.189 38.2781L101.196 37.5532C100.905 37.1492 100.511 36.8769 100.076 36.715L99.643 37.8773ZM100.189 38.2781L99.194 39.0182C99.1818 39.0017 99.1718 38.985 99.164 38.9692C99.1563 38.9535 99.1518 38.9408 99.1494 38.9327C99.1448 38.9167 99.1495 38.9233 99.1495 38.9622H100.39H101.63C101.63 38.4828 101.512 37.9776 101.185 37.5381L100.189 38.2781ZM100.39 38.9622H99.1495C99.1495 38.9659 99.1492 38.9459 99.1604 38.9113C99.1722 38.8753 99.1911 38.8403 99.2133 38.8119L100.189 39.5772L101.165 40.3426C101.489 39.9304 101.63 39.448 101.63 38.9622H100.39ZM100.189 39.5772L99.2115 38.8143C99.2189 38.8048 99.2263 38.7968 99.2332 38.7904C99.24 38.784 99.2451 38.7802 99.2474 38.7786C99.252 38.7753 99.2426 38.7829 99.2103 38.7949L99.643 39.9573L100.076 41.1197C100.485 40.9672 100.872 40.7186 101.167 40.3402L100.189 39.5772ZM99.643 39.9573L99.2019 38.7981C99.1417 38.821 99.0294 38.8483 98.8413 38.8483V40.0886V41.3289C99.2622 41.3289 99.6844 41.2686 100.084 41.1165L99.643 39.9573ZM98.8413 40.0886V38.8483H98.0057V40.0886V41.3289H98.8413V40.0886Z" fill="#0C1436" mask="url(#path-25-inside-10_553_2894)"/>
<path d="M22.8042 40.9727H0.45752H22.8042ZM108.275 40.9727H128.088H108.275Z" fill="#0C1436"/>
<path d="M22.8042 40.9727H0.45752M108.275 40.9727H128.088" stroke="#0C1436" stroke-width="0.915221" stroke-linecap="round"/>
</svg>
