<svg width="170" height="29" viewBox="0 0 170 29" fill="none" xmlns="http://www.w3.org/2000/svg">
<path d="M169.788 14.2664C161.321 13.5301 156.749 4.75546 155.522 0.460206C155.522 10.1245 146.318 12.579 142.636 14.2664C151.84 17.0276 154.908 25.4647 155.522 28.0726C157.823 19.3286 166.72 15.3402 169.788 14.2664Z" fill="#0C1436"/>
<path d="M135.733 0H133.892V28.5328H135.733V0Z" fill="#0C1436"/>
<path d="M14.0197 25.0831C13.4773 25.2917 12.7367 25.4899 11.7978 25.6776C11.2554 25.8028 10.713 25.8967 10.1706 25.9593C9.62812 26.0427 9.07526 26.0845 8.51197 26.0845C6.86382 26.0845 5.393 25.7402 4.09951 25.0518C2.80603 24.3424 1.79419 23.3723 1.064 22.1414C0.354665 20.9105 0 19.5127 0 17.948C0 16.3833 0.354665 14.9855 1.064 13.7546C1.79419 12.5237 2.80603 11.5641 4.09951 10.8756C5.393 10.1663 6.86382 9.81159 8.51197 9.81159C9.3882 9.81159 10.3375 9.92633 11.3597 10.1558C12.1734 10.3227 12.8723 10.5105 13.4564 10.7191V8.43465H14.0823V16.3207H13.4877V15.4758C13.4877 14.8082 13.2061 14.0676 12.6428 13.2539C12.0795 12.4403 11.391 11.7518 10.5774 11.1885C9.78459 10.6044 9.06483 10.3123 8.41809 10.3123C7.56272 10.3123 6.81166 10.6044 6.16492 11.1885C5.53904 11.7518 5.0592 12.6072 4.72539 13.7546C4.39159 14.8812 4.22469 16.279 4.22469 17.948C4.22469 19.617 4.39159 21.0148 4.72539 22.1414C5.0592 23.268 5.53904 24.1234 6.16492 24.7075C6.81166 25.2708 7.56272 25.5525 8.41809 25.5525C9.14828 25.5525 9.95149 25.2708 10.8277 24.7075C11.704 24.1234 12.455 23.414 13.0809 22.5795C13.7068 21.745 14.0406 20.9627 14.0823 20.2325V19.3563H14.6456V27.1172H14.0197V25.0831Z" fill="#0C1436"/>
<path d="M16.867 25.1456H19.7773V10.7504H16.867V10.1245H23.7829V13.4104C24.2002 12.263 24.8157 11.3763 25.6293 10.7504C26.4429 10.1245 27.3818 9.81159 28.4458 9.81159C29.0508 9.81159 29.6454 9.93676 30.2295 10.1871C30.3964 10.2497 30.5633 10.3227 30.7302 10.4062C30.8971 10.4896 31.064 10.5731 31.2309 10.6565V8.1843H31.8568V16.6024H31.3248V15.6636C31.3248 15.0168 31.0849 14.3388 30.605 13.6295C30.1252 12.9201 29.541 12.3255 28.8526 11.8457C28.1641 11.345 27.5382 11.0946 26.9749 11.0946C26.3908 11.0946 25.8588 11.3554 25.3789 11.877C24.8991 12.3777 24.5131 13.0975 24.2211 14.0363C23.929 14.9751 23.7829 16.0808 23.7829 17.3534V25.1456H27.7573V25.7715H16.867V25.1456Z" fill="#0C1436"/>
<path d="M47.6573 25.0831C47.1149 25.2917 46.3743 25.4899 45.4355 25.6776C44.893 25.8028 44.3402 25.8967 43.7769 25.9593C43.2345 26.0427 42.6816 26.0845 42.1183 26.0845C40.4493 26.0845 38.9472 25.7507 37.612 25.0831C36.2768 24.3946 35.244 23.4349 34.5139 22.204C33.7837 20.9522 33.4186 19.5336 33.4186 17.948C33.4186 16.3833 33.7732 14.9855 34.4826 13.7546C35.1919 12.5029 36.1724 11.5328 37.4242 10.8443C38.6968 10.1558 40.1363 9.81159 41.7428 9.81159C43.3909 9.81159 44.8304 10.1558 46.0613 10.8443C47.2922 11.5119 48.2415 12.4611 48.9091 13.692C49.5976 14.9021 49.9627 16.3103 50.0044 17.9167C50.0044 17.9585 50.0044 18.0106 50.0044 18.0732C50.0044 18.1358 50.0044 18.1984 50.0044 18.261H37.6433C37.6641 19.8048 37.8519 21.1296 38.2066 22.2353C38.5821 23.341 39.0828 24.1755 39.7087 24.7388C40.3345 25.3021 41.0439 25.5838 41.8367 25.5838C42.5877 25.5838 43.4222 25.3125 44.3402 24.7701C45.279 24.2277 46.0718 23.5705 46.7185 22.7986C47.3861 22.0058 47.7199 21.2965 47.7199 20.6706V20.1699H48.2832V27.1172H47.6573V25.0831ZM45.811 17.6351C45.7901 16.0078 45.6128 14.6517 45.279 13.5669C44.9661 12.4611 44.5071 11.6475 43.9021 11.1259C43.3179 10.5835 42.5981 10.3123 41.7428 10.3123C40.9083 10.3123 40.1885 10.6044 39.5835 11.1885C38.9785 11.7518 38.5091 12.5863 38.1753 13.692C37.8414 14.7769 37.6641 16.0912 37.6433 17.6351H45.811Z" fill="#0C1436"/>
<path d="M56.9218 26.1158C55.3363 26.1158 54.1054 25.7507 53.2291 25.0205C52.3529 24.2903 51.9148 23.3202 51.9148 22.1101C51.9148 20.6915 52.4781 19.6275 53.6047 18.9181C54.7312 18.2088 56.2855 17.7707 58.2675 17.6038C59.5192 17.4995 60.5102 17.3326 61.2404 17.1031C61.9915 16.8527 62.5443 16.5085 62.899 16.0704C63.2745 15.6323 63.4623 15.0481 63.4623 14.3179C63.4623 12.9618 63.2015 11.9604 62.6799 11.3137C62.1584 10.6461 61.4386 10.3123 60.5206 10.3123C59.8113 10.3123 58.9768 10.6044 58.0171 11.1885C57.0783 11.7518 56.2751 12.4403 55.6075 13.2539C54.9399 14.0676 54.6061 14.8082 54.6061 15.4758V16.3207H54.0115V8.59112H54.6374V10.7191C55.2632 10.6565 55.7744 10.6044 56.1708 10.5626C57.0261 10.3123 57.7459 10.1245 58.3301 9.99935C58.9351 9.87417 59.5714 9.81159 60.239 9.81159C62.4087 9.81159 64.0986 10.3957 65.3086 11.5641C66.5395 12.7115 67.155 14.3075 67.155 16.352V25.1456H69.7837V25.7715H63.431V22.0788C62.9511 23.3932 62.1479 24.3946 61.0213 25.0831C59.9156 25.7715 58.5491 26.1158 56.9218 26.1158ZM58.7369 25.0518C59.5505 25.0518 60.312 24.8014 61.0213 24.3007C61.7515 23.8 62.3357 23.0907 62.7738 22.1727C63.2119 21.2339 63.431 20.1699 63.431 18.9807V16.2894C63.1806 16.665 62.7842 16.9883 62.2418 17.2596C61.7202 17.5308 61.0526 17.729 60.239 17.8541C58.7577 18.0628 57.6625 18.4905 56.9531 19.1372C56.2647 19.7631 55.9204 20.6602 55.9204 21.8285C55.9204 22.809 56.1812 23.5914 56.7028 24.1755C57.2452 24.7597 57.9232 25.0518 58.7369 25.0518Z" fill="#0C1436"/>
<path d="M77.8221 26.0845C76.1322 26.0845 74.8074 25.6151 73.8477 24.6762C72.888 23.7374 72.4082 22.4439 72.4082 20.7958V10.7504H69.4353V10.1245H72.1265C73.1697 10.1245 74.0355 9.82202 74.724 9.217C75.4333 8.59112 75.788 7.64187 75.788 6.36925V5.0549H76.4138V10.1245H82.1406V10.7504H76.4138V21.8911C76.4138 22.9759 76.685 23.8 77.2275 24.3633C77.7699 24.9266 78.521 25.2082 79.4807 25.2082C80.0022 25.2082 80.5551 25.0831 81.1392 24.8327C81.7442 24.5824 82.1824 24.2903 82.4536 23.9565V24.7701C82.0155 25.1456 81.3792 25.4586 80.5446 25.7089C79.7101 25.9593 78.8026 26.0845 77.8221 26.0845Z" fill="#0C1436"/>
<path d="M82.7567 25.1456H85.8549V10.7504H82.7567V10.1245H89.8605V25.1456H92.9586V25.7715H82.7567V25.1456ZM85.229 2.4575H90.3612L87.9515 8.34077H87.6386L85.229 2.4575Z" fill="#0C1436"/>
<path d="M93.327 10.7504H91.0113V10.1245H101.119V10.7504H97.6456L102.778 23.0177L107.879 10.7504H103.842V10.1245H110.852V10.7504H108.567L102.34 25.7715H99.6171L93.327 10.7504Z" fill="#0C1436"/>
<path d="M114.377 26.1158C112.791 26.1158 111.56 25.7507 110.684 25.0205C109.808 24.2903 109.37 23.3202 109.37 22.1101C109.37 20.6915 109.933 19.6275 111.06 18.9181C112.186 18.2088 113.741 17.7707 115.723 17.6038C116.974 17.4995 117.965 17.3326 118.695 17.1031C119.447 16.8527 119.999 16.5085 120.354 16.0704C120.73 15.6323 120.917 15.0481 120.917 14.3179C120.917 12.9618 120.657 11.9604 120.135 11.3137C119.613 10.6461 118.894 10.3123 117.976 10.3123C117.266 10.3123 116.432 10.6044 115.472 11.1885C114.533 11.7518 113.73 12.4403 113.063 13.2539C112.395 14.0676 112.061 14.8082 112.061 15.4758V16.3207H111.467V8.59112H112.092V10.7191C112.718 10.6565 113.229 10.6044 113.626 10.5626C114.481 10.3123 115.201 10.1245 115.785 9.99935C116.39 9.87417 117.026 9.81159 117.694 9.81159C119.864 9.81159 121.554 10.3957 122.764 11.5641C123.995 12.7115 124.61 14.3075 124.61 16.352V25.1456H127.239V25.7715H120.886V22.0788C120.406 23.3932 119.603 24.3946 118.476 25.0831C117.371 25.7715 116.004 26.1158 114.377 26.1158ZM116.192 25.0518C117.006 25.0518 117.767 24.8014 118.476 24.3007C119.207 23.8 119.791 23.0907 120.229 22.1727C120.667 21.2339 120.886 20.1699 120.886 18.9807V16.2894C120.636 16.665 120.239 16.9883 119.697 17.2596C119.175 17.5308 118.508 17.729 117.694 17.8541C116.213 18.0628 115.118 18.4905 114.408 19.1372C113.72 19.7631 113.375 20.6602 113.375 21.8285C113.375 22.809 113.636 23.5914 114.158 24.1755C114.7 24.7597 115.378 25.0518 116.192 25.0518Z" fill="#0C1436"/>
</svg>
