<svg width="169" height="31" viewBox="0 0 169 31" fill="none" xmlns="http://www.w3.org/2000/svg">
<path d="M18.8779 14.5144L28.0412 5.78748V23.2414L22.805 18.8779M23.6777 1.86035L14.9508 10.5873L6.66018 1.86035M23.6777 28.0412L1.86035 5.78748V23.2414L5.78748 19.3143M11.0237 23.2414L5.78748 28.0412" stroke="#0C1436" stroke-width="3.72093" stroke-linecap="round"/>
<path d="M44.5436 4.12207V10.6461C45.0847 8.5651 45.9067 6.98351 47.0096 5.90136C48.1126 4.81922 49.2884 4.27815 50.537 4.27815C51.6191 4.27815 52.4307 4.62152 52.9718 5.30826C53.5129 5.99501 53.8042 6.90026 53.8459 8.02403V10.6774C54.3661 8.59631 55.1777 7.01472 56.2807 5.93258C57.3836 4.82962 58.5594 4.27815 59.808 4.27815C60.8902 4.27815 61.7122 4.63193 62.2741 5.33948C62.8568 6.02622 63.1481 6.92107 63.1481 8.02403V23.8816C63.1481 24.3186 63.2418 24.6828 63.4291 24.9741C63.6372 25.2447 63.9285 25.3799 64.3031 25.3799C64.6153 25.3799 64.9274 25.2863 65.2396 25.099C65.5725 24.8909 65.8639 24.6308 66.1136 24.3186L66.7691 24.9429C65.8119 26.4829 64.4592 27.2529 62.7111 27.2529C61.6081 27.2529 60.7549 26.9095 60.1514 26.2228C59.5479 25.536 59.2462 24.4955 59.2462 23.1012V8.83563C59.2462 7.1708 58.8404 6.33838 58.0288 6.33838C57.4044 6.33838 56.7593 6.83783 56.0934 7.83673C55.4483 8.83563 54.9072 10.1051 54.4702 11.645C54.054 13.1642 53.8459 14.6417 53.8459 16.0777V26.3164L49.9439 27.5962V8.83563C49.9439 7.1708 49.5589 6.33838 48.7889 6.33838C48.1646 6.33838 47.5195 6.83783 46.8535 7.83673C46.1876 8.83563 45.6361 10.1051 45.1991 11.645C44.7621 13.1642 44.5436 14.6417 44.5436 16.0777V26.3164L40.6729 27.5962V5.40191L44.5436 4.12207Z" fill="#0C1436"/>
<path d="M83.4193 5.90136C81.1926 6.19271 79.1635 6.9731 77.3322 8.24254C75.5009 9.51197 74.065 11.1144 73.0245 13.0497C71.9839 14.9851 71.4637 17.0454 71.4637 19.2304C71.4637 21.1658 71.7758 22.6642 72.4001 23.7255C73.0245 24.7868 73.8777 25.3175 74.9598 25.3175C75.9587 25.3175 76.916 24.5267 77.8317 22.9451C78.7681 21.3427 79.5173 19.2409 80.0792 16.6395C80.6411 14.0382 80.922 11.3329 80.922 8.52348L84.8552 7.24364V23.8816C84.8552 24.3186 84.9592 24.6828 85.1673 24.9741C85.3754 25.2447 85.646 25.3799 85.979 25.3799C86.2911 25.3799 86.6033 25.2863 86.9154 25.099C87.2484 24.9117 87.5293 24.6516 87.7582 24.3186L88.4138 24.9429C87.4773 26.4829 86.135 27.2529 84.387 27.2529C83.284 27.2529 82.4308 26.9095 81.8273 26.2228C81.2238 25.5152 80.922 24.4747 80.922 23.1012V18.8559H80.7035C80.1 21.6861 79.1947 23.8087 77.9877 25.2239C76.7807 26.639 75.3032 27.3465 73.5551 27.3465C71.6614 27.3465 70.163 26.7014 69.0601 25.4111C67.9571 24.1209 67.4056 22.3416 67.4056 20.0733C67.4056 17.4095 68.1236 14.9227 69.5595 12.6127C71.0162 10.282 72.962 8.40902 75.3968 6.99391C77.8525 5.55799 80.5266 4.788 83.4193 4.68395V5.90136Z" fill="#0C1436"/>
<path d="M100.543 4.30936C102.624 4.30936 104.299 4.88165 105.568 6.02622C106.858 7.14999 107.504 8.71077 107.504 10.7086C107.504 12.0821 107.129 13.3827 106.38 14.6105C105.651 15.8175 104.653 16.8685 103.383 17.7633C102.135 18.6582 100.751 19.3241 99.2315 19.7611L102.509 23.8504C103.009 24.4539 103.591 24.7556 104.257 24.7556C105.09 24.7556 106.078 24.1833 107.223 23.0388L107.878 23.6319C107.129 24.6932 106.286 25.588 105.35 26.3164C104.413 27.0448 103.446 27.4089 102.447 27.4089C101.76 27.4089 101.125 27.2321 100.543 26.8783C99.9806 26.5245 99.3459 25.8898 98.6384 24.9741L94.9861 20.2606L95.1734 19.3865C96.5885 19.1992 97.9308 18.7518 99.2002 18.0443C100.49 17.3159 101.531 16.3794 102.322 15.2348C103.133 14.0695 103.539 12.7584 103.539 11.3017C103.539 9.78251 103.102 8.5755 102.228 7.68066C101.375 6.78581 100.074 6.33838 98.3262 6.33838C96.8695 6.33838 95.3711 6.68175 93.8311 7.3685C92.312 8.05524 90.9281 8.95009 89.6795 10.053L88.8679 9.17901C90.4286 7.74309 92.2079 6.5777 94.2057 5.68285C96.2035 4.76719 98.3158 4.30936 100.543 4.30936ZM94.674 26.3164L90.8969 27.6275V9.92818L94.674 8.67956V26.3164Z" fill="#0C1436"/>
<path d="M130.593 28.0645C130.198 28.6472 129.698 29.1362 129.095 29.5316C128.512 29.9478 127.825 30.1559 127.034 30.1559C126.056 30.1559 125.213 29.9478 124.506 29.5316C123.798 29.1154 123.008 28.3454 122.133 27.2217C121.488 27.3673 120.77 27.4402 119.98 27.4402C117.94 27.4402 116.13 26.8887 114.548 25.7857C112.966 24.6828 111.749 23.2469 110.896 21.478C110.043 19.7091 109.616 17.857 109.616 15.9216C109.616 13.903 110.022 12.0092 110.833 10.2403C111.645 8.47145 112.831 7.04594 114.392 5.96379C115.953 4.88165 117.815 4.34058 119.98 4.34058C122.019 4.34058 123.819 4.89206 125.38 5.99501C126.941 7.09796 128.137 8.54429 128.97 10.334C129.823 12.1029 130.25 13.9654 130.25 15.9216C130.25 17.961 129.844 19.8652 129.032 21.6341C128.221 23.4029 127.055 24.7972 125.536 25.8169C126.14 26.5869 126.67 27.128 127.128 27.4402C127.586 27.7731 128.054 27.9396 128.533 27.9396C129.074 27.9396 129.563 27.7627 130 27.4089L130.593 28.0645ZM118.825 6.08866C117.576 6.08866 116.546 6.48406 115.734 7.27485C114.943 8.04484 114.371 9.02293 114.017 10.2091C113.664 11.3953 113.487 12.6127 113.487 13.8614C113.487 15.11 113.612 16.3898 113.861 17.7009C114.132 18.9911 114.538 20.1773 115.079 21.2595C115.974 20.1981 117.035 19.6675 118.263 19.6675C119.012 19.6675 119.667 19.7923 120.229 20.0421C120.812 20.271 121.384 20.6768 121.946 21.2595C122.529 21.8422 123.205 22.6746 123.975 23.7567C124.225 24.0689 124.339 24.2145 124.319 24.1937C125.005 23.4446 125.515 22.4873 125.848 21.3219C126.202 20.1357 126.379 18.9495 126.379 17.7633C126.379 16.0152 126.108 14.2463 125.567 12.4567C125.047 10.6461 124.215 9.13739 123.07 7.93038C121.946 6.70256 120.531 6.08866 118.825 6.08866ZM115.578 22.1959C116.931 24.4018 118.721 25.536 120.947 25.5984C119.948 24.1833 119.147 23.2156 118.544 22.6954C117.961 22.1543 117.357 21.8838 116.733 21.8838C116.275 21.8838 115.89 21.9878 115.578 22.1959Z" fill="#0C1436"/>
<path d="M148.15 23.8816C148.15 24.3186 148.244 24.6828 148.431 24.9741C148.618 25.2447 148.899 25.3799 149.274 25.3799C149.586 25.3799 149.898 25.2863 150.21 25.099C150.543 24.8909 150.835 24.6308 151.084 24.3186L151.74 24.9429C150.824 26.4829 149.471 27.2529 147.682 27.2529C146.641 27.2529 145.809 26.9095 145.185 26.2228C144.56 25.536 144.248 24.5579 144.248 23.2885V21.9462C143.062 25.5464 140.991 27.3465 138.036 27.3465C136.704 27.3465 135.695 26.9199 135.008 26.0667C134.342 25.1926 134.009 24.1105 134.009 22.8202V5.62042L137.911 4.34058V21.8213C137.911 22.5913 137.932 23.2156 137.974 23.6943C138.036 24.1729 138.192 24.5995 138.442 24.9741C138.713 25.3487 139.129 25.536 139.691 25.536C140.689 25.536 141.522 24.9949 142.188 23.9128C142.875 22.8098 143.384 21.5404 143.717 20.1045C144.071 18.6478 144.248 17.4407 144.248 16.4835V5.58921L148.15 4.34058V23.8816Z" fill="#0C1436"/>
<path d="M162.876 4.46544C163.791 4.46544 164.655 4.65274 165.467 5.02732C166.278 5.40191 166.965 5.93258 167.527 6.61932L164.78 8.3674C163.843 6.765 162.699 5.96379 161.346 5.96379C160.764 5.96379 160.202 6.10947 159.661 6.40081C159.119 6.69216 158.672 7.10837 158.318 7.64944C157.985 8.1697 157.819 8.75239 157.819 9.39752C157.819 10.4797 158.193 11.3641 158.943 12.0508C159.692 12.7376 160.587 13.081 161.627 13.081C162.335 13.081 162.938 12.9769 163.438 12.7688L163.719 13.7677C161.846 14.3504 160.222 15.2244 158.849 16.3898C157.475 17.5552 156.789 18.9911 156.789 20.6976C156.789 21.8838 157.111 22.8619 157.756 23.6319C158.422 24.4018 159.307 24.7868 160.41 24.7868C161.887 24.7868 163.292 24.3498 164.624 23.4758C165.956 22.5809 166.944 21.5404 167.589 20.3542L168.588 21.1658C167.569 22.9347 166.185 24.4122 164.437 25.5984C162.709 26.7846 160.836 27.3777 158.818 27.3777C156.862 27.3777 155.301 26.8679 154.135 25.8482C152.97 24.8076 152.387 23.4446 152.387 21.7589C152.387 20.3022 152.928 18.9911 154.011 17.8257C155.113 16.6395 156.456 15.6719 158.037 14.9227C157.08 14.6522 156.3 14.1319 155.696 13.3619C155.113 12.5919 154.822 11.7283 154.822 10.771C154.822 9.50157 155.218 8.38821 156.008 7.43093C156.799 6.47365 157.808 5.74528 159.036 5.24583C160.285 4.72557 161.565 4.46544 162.876 4.46544Z" fill="#0C1436"/>
</svg>
