<svg width="125" height="33" viewBox="0 0 125 33" fill="none" xmlns="http://www.w3.org/2000/svg">
<path d="M33.7274 22.0765H40.3004L39.7574 25.1344H29.1549L32.6986 5.18682H36.6996L33.7274 22.0765Z" fill="#0C1436"/>
<path d="M58.8758 9.30207L56.0751 25.1344H52.0742L52.4171 23.1339C51.8074 23.8198 51.0549 24.3628 50.1594 24.7629C49.264 25.1439 48.3209 25.3344 47.3302 25.3344C45.6917 25.3344 44.3962 24.8962 43.4436 24.0198C42.491 23.1244 42.0147 21.8574 42.0147 20.2189C42.0147 19.6093 42.0623 19.0663 42.1576 18.59L43.7865 9.30207H47.7875L46.2442 18.0184C46.1871 18.3614 46.1585 18.6948 46.1585 19.0187C46.1585 19.9522 46.4157 20.6762 46.9301 21.1906C47.4445 21.6859 48.1685 21.9336 49.102 21.9336C50.188 21.9336 51.112 21.6002 51.8741 20.9334C52.6362 20.2475 53.122 19.2759 53.3316 18.0184L54.8748 9.30207H58.8758Z" fill="#0C1436"/>
<path d="M70.4823 9.07345C72.1208 9.07345 73.4068 9.52117 74.3404 10.4166C75.293 11.293 75.7693 12.5505 75.7693 14.1889C75.7693 14.7986 75.7216 15.3511 75.6264 15.8465L73.9688 25.1344H69.9965L71.5397 16.3895C71.5969 16.0465 71.6254 15.7131 71.6254 15.3892C71.6254 14.4366 71.3682 13.7126 70.8538 13.2173C70.3585 12.7219 69.644 12.4742 68.7105 12.4742C67.6435 12.4742 66.729 12.7981 65.967 13.4459C65.2239 14.0746 64.7286 14.9891 64.4809 16.1894L62.9091 25.1344H58.8796L61.6802 9.30207H65.7098L65.3668 11.2454C66.0146 10.5786 66.7862 10.0546 67.6816 9.67359C68.5771 9.27349 69.5107 9.07345 70.4823 9.07345Z" fill="#0C1436"/>
<path d="M81.2029 22.0765H87.7759L87.2329 25.1344H76.6304L80.1741 5.18682H84.175L81.2029 22.0765Z" fill="#0C1436"/>
<path d="M89.0043 17.1611C89.2901 15.5607 89.8521 14.1413 90.6904 12.9029C91.5478 11.6645 92.5861 10.7119 93.8054 10.0451C95.0248 9.37828 96.3108 9.04487 97.6635 9.04487C98.8447 9.04487 99.8354 9.28302 100.636 9.75932C101.455 10.2356 102.055 10.8358 102.436 11.5597L102.836 9.30207H106.866L104.065 25.1344H100.035L100.464 22.8195C99.8354 23.5626 99.0162 24.1818 98.0064 24.6771C97.0157 25.1534 95.9298 25.3916 94.7485 25.3916C93.5863 25.3916 92.5575 25.1344 91.6621 24.62C90.7666 24.0865 90.0712 23.3435 89.5759 22.3909C89.0805 21.4192 88.8328 20.2951 88.8328 19.0187C88.8328 18.428 88.89 17.8088 89.0043 17.1611ZM101.436 17.2182C101.512 16.7229 101.55 16.3609 101.55 16.1323C101.55 15.0082 101.217 14.1318 100.55 13.5031C99.9021 12.8743 99.0829 12.56 98.0922 12.56C97.3491 12.56 96.6252 12.741 95.9202 13.103C95.2344 13.465 94.6342 13.9984 94.1198 14.7033C93.6054 15.3892 93.2625 16.2085 93.091 17.1611C93.0338 17.5231 93.0053 17.866 93.0053 18.1899C93.0053 19.333 93.3291 20.238 93.9769 20.9048C94.6247 21.5526 95.4439 21.8765 96.4346 21.8765C97.1777 21.8765 97.9016 21.6955 98.6066 21.3335C99.3115 20.9524 99.9116 20.4095 100.407 19.7045C100.921 18.9996 101.264 18.1708 101.436 17.2182Z" fill="#0C1436"/>
<path d="M113.26 11.5883C113.907 10.8643 114.717 10.2642 115.689 9.7879C116.679 9.29255 117.756 9.04487 118.918 9.04487C120.099 9.04487 121.138 9.30207 122.033 9.81648C122.948 10.3118 123.653 11.0358 124.148 11.9884C124.643 12.941 124.891 14.0556 124.891 15.3321C124.891 15.9227 124.834 16.5323 124.719 17.1611C124.434 18.7805 123.862 20.2189 123.005 21.4764C122.147 22.7148 121.109 23.6769 119.89 24.3628C118.67 25.0486 117.394 25.3916 116.06 25.3916C114.898 25.3916 113.907 25.1534 113.088 24.6771C112.288 24.2008 111.678 23.6007 111.259 22.8767L109.544 32.679H105.515L109.63 9.30207H113.66L113.26 11.5883ZM120.633 17.1611C120.69 16.78 120.718 16.4371 120.718 16.1323C120.718 15.0082 120.395 14.1318 119.747 13.5031C119.099 12.8743 118.27 12.56 117.261 12.56C116.537 12.56 115.822 12.7505 115.117 13.1315C114.412 13.4935 113.803 14.027 113.288 14.7319C112.774 15.4369 112.431 16.2656 112.259 17.2182C112.183 17.7136 112.145 18.0756 112.145 18.3042C112.145 19.4283 112.469 20.3047 113.117 20.9334C113.784 21.5621 114.612 21.8765 115.603 21.8765C116.346 21.8765 117.07 21.6859 117.775 21.3049C118.48 20.9239 119.09 20.3809 119.604 19.6759C120.118 18.971 120.461 18.1327 120.633 17.1611Z" fill="#0C1436"/>
<path d="M5.93313 0L13.042 1.19072L10.8578 14.2311L23.2049 16.2992L21.9762 23.6345L8.35175 21.3524C5.13111 20.8129 2.95758 17.7648 3.49703 14.5441L5.93313 0Z" fill="#0C1436"/>
<path d="M2.74025 1.20024L9.84916 2.39096L7.52286 16.2795L19.8699 18.3476L18.5614 26.1599L4.93689 23.8779C1.71625 23.3384 -0.457285 20.2903 0.0821651 17.0696L2.74025 1.20024Z" fill="#0C1436"/>
</svg>
