<svg width="127" height="31" viewBox="0 0 127 31" fill="none" xmlns="http://www.w3.org/2000/svg">
<path d="M0 25.168V0H4.96988V25.168H0Z" fill="#0C1436"/>
<path d="M17.2781 25.4866C15.4728 25.4866 13.8693 25.1149 12.4675 24.3715C11.087 23.6282 9.99319 22.5556 9.18612 21.1539C8.40028 19.7521 8.00736 18.053 8.00736 16.0565C8.00736 14.1238 8.37904 12.4459 9.1224 11.0229C9.887 9.59994 10.9489 8.49552 12.3082 7.70969C13.6675 6.90261 15.2817 6.49908 17.1507 6.49908C19.0409 6.49908 20.6657 6.92385 22.025 7.77341C23.3843 8.62296 24.3931 9.85481 25.0515 11.469C25.7099 13.0831 25.9329 15.0583 25.7205 17.3946H11.9896V14.145H22.0887L20.5914 15.5468C20.8675 13.8902 20.6869 12.5946 20.0498 11.6601C19.4126 10.7044 18.4144 10.2265 17.0551 10.2265C15.7383 10.2265 14.7082 10.7044 13.9648 11.6601C13.2427 12.5946 12.8817 14.007 12.8817 15.8972C12.8817 17.9574 13.2746 19.4441 14.0604 20.3574C14.8463 21.2494 15.9401 21.6954 17.3418 21.6954C18.425 21.6954 19.317 21.4618 20.0179 20.9946C20.74 20.5061 21.186 19.837 21.356 18.9875L25.625 20.0707C25.3701 21.1539 24.8604 22.099 24.0958 22.9061C23.3312 23.7131 22.3648 24.3503 21.1967 24.8175C20.0285 25.2636 18.7223 25.4866 17.2781 25.4866Z" fill="#0C1436"/>
<path d="M33.9103 25.4866C32.0413 25.4866 30.5546 25.0087 29.4502 24.053C28.367 23.0972 27.8254 21.8335 27.8254 20.2618C27.8254 19.1786 28.0484 18.2548 28.4944 17.4902C28.9617 16.7256 29.6095 16.1096 30.4378 15.6424C31.2873 15.1751 32.2856 14.8459 33.4325 14.6548L37.4147 13.9858C38.0944 13.8583 38.5616 13.6459 38.8165 13.3486C39.0926 13.0512 39.2307 12.6477 39.2307 12.138C39.2307 11.5008 38.997 11.0123 38.5298 10.6725C38.0838 10.3327 37.3723 10.1628 36.3953 10.1628C35.3121 10.1628 34.4732 10.3964 33.8785 10.8637C33.305 11.3309 33.0183 12.053 33.0183 13.03L28.4944 12.5203C28.4732 10.63 29.1953 9.15393 30.6608 8.09199C32.1263 7.03005 34.0696 6.49908 36.4908 6.49908C38.2749 6.49908 39.7298 6.74332 40.8554 7.23181C42.0023 7.69907 42.8413 8.36809 43.3722 9.23888C43.9244 10.1097 44.2005 11.161 44.2005 12.3928V20.2937C44.2005 20.8247 44.3067 21.1751 44.5191 21.345C44.7527 21.5149 45.0076 21.5999 45.2837 21.5999C45.4111 21.5999 45.5173 21.5999 45.6023 21.5999C45.6872 21.5786 45.7616 21.5574 45.8253 21.5362H46.0165V24.9768C45.7191 25.1255 45.3368 25.2317 44.8696 25.2954C44.4235 25.3591 44.0094 25.391 43.6271 25.391C42.6076 25.391 41.7687 25.1786 41.1103 24.7538C40.4519 24.3291 40.059 23.6813 39.9315 22.8105L39.8997 22.46C39.3475 23.4158 38.551 24.1591 37.5103 24.6901C36.4696 25.2211 35.2696 25.4866 33.9103 25.4866ZM35.4395 21.9185C36.5015 21.9185 37.3723 21.6742 38.0519 21.1857C38.7528 20.6972 39.1882 20.0176 39.3581 19.1468V16.3433L39.6767 16.5026C39.4218 16.6512 39.1138 16.7787 38.7528 16.8849C38.413 16.991 37.9882 17.0972 37.4785 17.2034L35.0891 17.6495C34.2395 17.7981 33.6448 18.0742 33.305 18.4778C32.9864 18.8813 32.8272 19.3273 32.8272 19.8158C32.8272 20.4955 33.0608 21.0158 33.528 21.3769C33.9953 21.7379 34.6325 21.9185 35.4395 21.9185Z" fill="#0C1436"/>
<path d="M55.9 30.8069C53.6274 30.8069 51.8221 30.329 50.4841 29.3733C49.146 28.4388 48.3814 27.2069 48.1903 25.6777L52.9372 24.8494C53.0009 25.4866 53.1708 25.9857 53.4469 26.3467C53.7442 26.729 54.1265 26.9945 54.5938 27.1432C55.0823 27.2919 55.6239 27.3662 56.2185 27.3662C57.4079 27.3662 58.3318 27.0901 58.9902 26.5379C59.6699 26.0069 60.0097 25.1574 60.0097 23.9892V21.0264C59.5212 21.8972 58.8309 22.545 57.9389 22.9698C57.0469 23.3733 56.038 23.5751 54.9124 23.5751C53.4044 23.5751 52.0876 23.2246 50.9619 22.5238C49.8363 21.8229 48.9655 20.8353 48.3496 19.5609C47.7336 18.2866 47.4257 16.7893 47.4257 15.0689C47.4257 13.3486 47.723 11.8513 48.3177 10.5769C48.9336 9.3026 49.7832 8.31499 50.8664 7.61411C51.9708 6.89199 53.2664 6.53093 54.7531 6.53093C55.9424 6.53093 57.0256 6.7858 58.0026 7.29553C58.9796 7.78402 59.6911 8.4849 60.1371 9.39817L60.3601 6.81766H64.9477V23.7662C64.9477 25.1467 64.6291 26.368 63.992 27.4299C63.376 28.4919 62.399 29.3202 61.061 29.9149C59.7442 30.5096 58.0238 30.8069 55.9 30.8069ZM56.2185 19.8795C57.0044 19.8795 57.6734 19.699 58.2256 19.3379C58.7991 18.9769 59.2345 18.4671 59.5318 17.8087C59.8504 17.1503 60.0097 16.3857 60.0097 15.5149V14.6548C60.0097 13.7627 59.8504 12.9982 59.5318 12.361C59.2345 11.7026 58.7991 11.2035 58.2256 10.8637C57.6522 10.5238 56.9725 10.3539 56.1867 10.3539C54.9973 10.3539 54.0734 10.7787 53.415 11.6282C52.7779 12.4566 52.4593 13.6141 52.4593 15.1008C52.4593 16.5663 52.7779 17.7344 53.415 18.6052C54.0734 19.4548 55.0079 19.8795 56.2185 19.8795Z" fill="#0C1436"/>
<path d="M77.1041 25.4866C75.2351 25.4866 73.6103 25.0937 72.2298 24.3078C70.8493 23.5007 69.7767 22.3963 69.0121 20.9946C68.2688 19.5716 67.8971 17.9149 67.8971 16.0247C67.8971 14.1132 68.2794 12.4459 69.044 11.0229C69.8086 9.59994 70.8811 8.49552 72.2617 7.70969C73.6422 6.90261 75.2563 6.49908 77.1041 6.49908C78.9519 6.49908 80.5554 6.90261 81.9147 7.70969C83.2952 8.49552 84.3571 9.59994 85.1005 11.0229C85.8651 12.4459 86.2474 14.1026 86.2474 15.9928C86.2474 17.9043 85.8651 19.5716 85.1005 20.9946C84.3571 22.4176 83.2952 23.522 81.9147 24.3078C80.5554 25.0937 78.9519 25.4866 77.1041 25.4866ZM77.0722 21.4724C78.4103 21.4724 79.451 20.9946 80.1943 20.0388C80.9589 19.0831 81.3412 17.7344 81.3412 15.9928C81.3412 14.23 80.9589 12.8813 80.1943 11.9468C79.451 10.9911 78.4209 10.5132 77.1041 10.5132C75.7448 10.5132 74.6829 11.0017 73.9183 11.9787C73.1749 12.9344 72.8032 14.2725 72.8032 15.9928C72.8032 17.7556 73.1749 19.1149 73.9183 20.0707C74.6829 21.0052 75.7342 21.4724 77.0722 21.4724Z" fill="#0C1436"/>
<path d="M89.2279 25.168V6.81766H93.7836L93.9748 9.3026C94.6756 8.32561 95.4721 7.61411 96.3641 7.1681C97.2562 6.72208 98.3181 6.49908 99.5499 6.49908C101.44 6.49908 102.938 7.04067 104.042 8.12385C105.168 9.18579 105.73 10.7468 105.73 12.807V25.168H100.792V13.6035C100.792 12.7114 100.527 12.0318 99.996 11.5645C99.4862 11.076 98.7535 10.8318 97.7978 10.8318C97.1606 10.8318 96.5765 10.9698 96.0455 11.246C95.5146 11.5221 95.0792 11.9256 94.7394 12.4566C94.4208 12.9875 94.2402 13.6141 94.1978 14.3362V25.168H89.2279Z" fill="#0C1436"/>
<path d="M117.986 25.4866C116.181 25.4866 114.577 25.1149 113.176 24.3715C111.795 23.6282 110.701 22.5556 109.894 21.1539C109.108 19.7521 108.715 18.053 108.715 16.0565C108.715 14.1238 109.087 12.4459 109.83 11.0229C110.595 9.59994 111.657 8.49552 113.016 7.70969C114.376 6.90261 115.99 6.49908 117.859 6.49908C119.749 6.49908 121.374 6.92385 122.733 7.77341C124.092 8.62296 125.101 9.85481 125.76 11.469C126.418 13.0831 126.641 15.0583 126.429 17.3946H112.698V14.145H122.797L121.299 15.5468C121.576 13.8902 121.395 12.5946 120.758 11.6601C120.121 10.7044 119.122 10.2265 117.763 10.2265C116.446 10.2265 115.416 10.7044 114.673 11.6601C113.951 12.5946 113.59 14.007 113.59 15.8972C113.59 17.9574 113.983 19.4441 114.768 20.3574C115.554 21.2494 116.648 21.6954 118.05 21.6954C119.133 21.6954 120.025 21.4618 120.726 20.9946C121.448 20.5061 121.894 19.837 122.064 18.9875L126.333 20.0707C126.078 21.1539 125.568 22.099 124.804 22.9061C124.039 23.7131 123.073 24.3503 121.905 24.8175C120.737 25.2636 119.43 25.4866 117.986 25.4866Z" fill="#0C1436"/>
</svg>
