<svg width="37" height="37" viewBox="0 0 37 37" fill="none" xmlns="http://www.w3.org/2000/svg">
<path d="M33.4383 22.139C31.4328 22.139 18.5664 18.4961 18.5664 18.4961C18.5664 18.4961 31.4341 14.8545 33.4383 14.8545C34.3892 14.8721 35.2953 15.2636 35.9616 15.9447C36.6279 16.6258 37.0012 17.5422 37.0012 18.4967C37.0012 19.4513 36.6279 20.3677 35.9616 21.0488C35.2953 21.7299 34.3892 22.1214 33.4383 22.139Z" fill="#59624D"/>
<path d="M22.1984 3.57573C22.1984 5.58717 18.5698 18.5 18.5698 18.5C18.5698 18.5 14.94 5.58717 14.94 3.57573C14.9576 2.62137 15.3476 1.71204 16.0263 1.04334C16.705 0.374642 17.6181 0 18.5692 0C19.5203 0 20.4334 0.374642 21.1121 1.04334C21.7908 1.71204 22.1808 2.62137 22.1984 3.57573ZM3.69669 14.8584C5.70091 14.8584 18.5673 18.5 18.5673 18.5C18.5673 18.5 5.70091 22.1429 3.69669 22.1429C3.21447 22.1518 2.73532 22.0642 2.28722 21.8851C1.83912 21.7061 1.43107 21.4392 1.08691 21.1002C0.742738 20.7611 0.469358 20.3565 0.282738 19.9102C0.096118 19.4638 0 18.9847 0 18.5006C0 18.0166 0.096118 17.5374 0.282738 17.0911C0.469358 16.6447 0.742738 16.2402 1.08691 15.9011C1.43107 15.562 1.83912 15.2951 2.28722 15.1161C2.73532 14.9371 3.21447 14.8494 3.69669 14.8584ZM14.94 33.4243C14.94 31.4128 18.5698 18.5 18.5698 18.5C18.5698 18.5 22.1984 31.4128 22.1984 33.4243C22.1808 34.3786 21.7908 35.288 21.1121 35.9567C20.4334 36.6254 19.5203 37 18.5692 37C17.6181 37 16.705 36.6254 16.0263 35.9567C15.3476 35.288 14.9576 34.3786 14.94 33.4243Z" fill="#59624D"/>
</svg>
