<svg width="13" height="13" viewBox="0 0 13 13" fill="none" xmlns="http://www.w3.org/2000/svg">
<path d="M1.18532 0.0281765C0.774642 0.106689 0.333771 0.450936 0.146552 0.843498C0.00764761 1.13943 -0.0346277 1.45952 0.0287853 1.75243C0.0982375 2.06346 0.209965 2.28692 0.400204 2.49226C1.32422 3.48574 2.95182 2.84557 2.95182 1.4867C2.95182 0.538507 2.11537 -0.149986 1.18532 0.0281765Z" fill="white"/>
<path d="M8.66292 3.97093C8.521 4.00113 8.33982 4.04944 8.25527 4.07662C7.75098 4.25177 7.24368 4.63829 6.97191 5.06407L6.85112 5.24525L6.84508 4.67754L6.83603 4.10682L5.60702 4.09776L4.375 4.09172V8.22872V12.3657H5.65836H6.94171V10.1523C6.94171 7.94789 6.95681 7.58854 7.05042 7.21712C7.16215 6.78228 7.42788 6.43501 7.76306 6.28101C8.1073 6.12398 8.6599 6.10587 9.00716 6.23571C9.34235 6.36254 9.59298 6.67357 9.70169 7.09935C9.79228 7.45266 9.81039 7.94185 9.81039 10.1372V12.3355H11.0938H12.3771V9.9258C12.3771 7.43454 12.359 6.88495 12.2533 6.29611C12.0057 4.89194 11.293 4.14909 10.0006 3.95583C9.59298 3.89544 8.98603 3.90148 8.66292 3.97093Z" fill="white"/>
<path d="M0.203125 8.22872V12.3657H1.48648H2.76984V8.22872V4.09172H1.48648H0.203125V8.22872Z" fill="white"/>
</svg>
