<svg width="13" height="13" viewBox="0 0 13 13" fill="none" xmlns="http://www.w3.org/2000/svg">
<path d="M0.0421157 0.0652189C0.0668897 0.103882 1.15199 1.64314 2.45262 3.49171C3.75326 5.34027 4.81854 6.86262 4.81854 6.8747C4.81854 6.8892 3.75078 8.11191 2.44271 9.5956C1.13713 11.0769 0.0520253 12.3092 0.0322062 12.331C0 12.3697 0.0346836 12.3721 0.54255 12.3721H1.08758L3.19089 9.98706C4.34783 8.67736 5.30658 7.59963 5.31897 7.59722C5.33384 7.59238 6.10183 8.66527 7.0259 9.97981L8.70805 12.3721H10.5512C12.2978 12.3721 12.3919 12.3697 12.3696 12.3286C12.3573 12.3068 11.23 10.7047 9.86747 8.7716C8.5049 6.83846 7.3876 5.25087 7.3876 5.24362C7.3876 5.23395 8.42315 4.05474 9.6891 2.6218L11.9881 0.0120583L11.4555 0.00480843C11.017 -2.38419e-05 10.9154 0.00480843 10.8832 0.0338058C10.8609 0.0531368 9.95666 1.07528 8.87403 2.30283C7.79141 3.53279 6.89707 4.53319 6.88716 4.52836C6.87725 4.52111 6.15385 3.50138 5.27933 2.25933L3.68884 -2.38419e-05H1.84318H0L0.0421157 0.0652189ZM7.01599 6.17636C9.13416 9.13406 10.8733 11.5626 10.8758 11.5771C10.8832 11.5916 10.5834 11.5964 10.0483 11.594L9.21096 11.5867L5.35118 6.20294C3.22805 3.2404 1.49139 0.811894 1.49139 0.807062C1.49139 0.802229 1.86796 0.797396 2.32875 0.797396L3.16364 0.799812L7.01599 6.17636Z" fill="white"/>
</svg>
