<svg width="14" height="14" viewBox="0 0 14 14" fill="none" xmlns="http://www.w3.org/2000/svg">
<path d="M0.0476573 0.0738287C0.075691 0.117579 1.30357 1.85938 2.77534 3.95117C4.24711 6.04297 5.45255 7.76562 5.45255 7.7793C5.45255 7.7957 4.2443 9.1793 2.76412 10.8582C1.28675 12.5344 0.0588708 13.9289 0.0364438 13.9535C0 13.9973 0.0392472 14 0.613938 14H1.23068L3.61074 11.3012C4.91991 9.81914 6.00482 8.59961 6.01884 8.59688C6.03566 8.59141 6.9047 9.80547 7.95036 11.293L9.85385 14H11.9396C13.9159 14 14.0225 13.9973 13.9972 13.9508C13.9832 13.9262 12.7077 12.1133 11.1658 9.92578C9.62397 7.73828 8.35965 5.9418 8.35965 5.93359C8.35965 5.92266 9.53146 4.58828 10.964 2.9668L13.5655 0.0136719L12.9628 0.00546932C12.4666 0 12.3516 0.00546932 12.3152 0.0382814C12.29 0.0601568 11.2667 1.2168 10.0417 2.60586C8.8166 3.99766 7.80458 5.12969 7.79337 5.12422C7.78216 5.11602 6.96357 3.96211 5.97398 2.55664L4.17422 0H2.08571H0L0.0476573 0.0738287ZM7.93914 6.98906C10.336 10.3359 12.304 13.084 12.3068 13.1004C12.3152 13.1168 11.976 13.1223 11.3705 13.1195L10.4229 13.1113L6.05528 7.01914C3.65279 3.6668 1.68763 0.91875 1.68763 0.913281C1.68763 0.907813 2.11374 0.902344 2.63517 0.902344L3.5799 0.905078L7.93914 6.98906Z" fill="white"/>
</svg>
