<svg width="12" height="12" viewBox="0 0 12 12" fill="none" xmlns="http://www.w3.org/2000/svg">
<path d="M0.0408491 0.0632808C0.064878 0.100781 1.11734 1.59375 2.37886 3.38672C3.64038 5.17969 4.67362 6.65625 4.67362 6.66797C4.67362 6.68203 3.63797 7.86797 2.36925 9.30703C1.10293 10.7437 0.0504607 11.9391 0.0312375 11.9602C0 11.9977 0.0336404 12 0.526233 12H1.05487L3.09492 9.68672C4.21707 8.41641 5.14699 7.37109 5.159 7.36875C5.17342 7.36406 5.91831 8.40469 6.81459 9.67969L8.44615 12H10.2339C11.9279 12 12.0192 11.9977 11.9976 11.9578C11.9856 11.9367 10.8923 10.3828 9.5707 8.50781C8.24912 6.63281 7.16541 5.09297 7.16541 5.08594C7.16541 5.07656 8.16982 3.93281 9.3977 2.54297L11.6276 0.0117183L11.111 0.00468702C10.6856 -4.76837e-07 10.5871 0.00468702 10.5559 0.032812C10.5343 0.051562 9.65721 1.04297 8.60715 2.23359C7.55708 3.42656 6.68964 4.39687 6.68003 4.39219C6.67042 4.38516 5.96877 3.39609 5.12056 2.19141L3.5779 -4.76837e-07H1.78775H0L0.0408491 0.0632808ZM6.80498 5.99062C8.85945 8.85937 10.5463 11.2148 10.5487 11.2289C10.5559 11.243 10.2651 11.2477 9.74612 11.2453L8.93394 11.2383L5.19024 6.01641C3.13096 3.14297 1.44654 0.7875 1.44654 0.782812C1.44654 0.778125 1.81178 0.773437 2.25872 0.773437L3.06849 0.775781L6.80498 5.99062Z" fill="black"/>
</svg>
